SplineFontDB: 3.2
FontName: Derani
FullName: Derani
FamilyName: Derani
Weight: Regular
Copyright: Copyright Miles Forster 2022
Version: 1.0
ItalicAngle: 0
UnderlinePosition: 81
UnderlineWidth: 54
Ascent: 800
Descent: 200
InvalidEm: 0
sfntRevision: 0x00010000
LayerCount: 2
Layer: 0 1 "Back" 1
Layer: 1 1 "Fore" 0
XUID: [1021 618 -23699139 8853324]
StyleMap: 0x0040
FSType: 4
OS2Version: 2
OS2_WeightWidthSlopeOnly: 0
OS2_UseTypoMetrics: 1
CreationTime: 1670694376
ModificationTime: 1704244590
PfmFamily: 81
TTFWeight: 400
TTFWidth: 5
LineGap: 0
VLineGap: 0
Panose: 0 0 4 0 0 0 0 0 0 0
OS2TypoAscent: 1283
OS2TypoAOffset: 0
OS2TypoDescent: -513
OS2TypoDOffset: 0
OS2TypoLinegap: 0
OS2WinAscent: 1283
OS2WinAOffset: 0
OS2WinDescent: 513
OS2WinDOffset: 0
HheadAscent: 1283
HheadAOffset: 0
HheadDescent: -513
HheadDOffset: 0
OS2SubXSize: 550
OS2SubYSize: 550
OS2SubXOff: 0
OS2SubYOff: -256
OS2SupXSize: 550
OS2SupYSize: 550
OS2SupXOff: 0
OS2SupYOff: 550
OS2StrikeYSize: 55
OS2StrikeYPos: 220
OS2CapHeight: 770
OS2XHeight: 513
OS2Vendor: 'FSTR'
OS2CodePages: 200101ff.cdff0000
OS2UnicodeRanges: 00000001.10000000.00000000.00000000
Lookup: 1 0 0 "HiatusToHiatusDiphthong" { "HiatusToHiatusDiphthong"  } ['vvfl' ('DFLT' <'dflt' > 'latn' <'dflt' > ) ]
Lookup: 2 0 0 "DeleteDiphthong" { "DeleteDiphthong"  } ['delt' ('DFLT' <'dflt' > 'latn' <'dflt' > ) ]
Lookup: 1 0 0 "WithCartouche" { "WithCartouche"  } ['cart' ('DFLT' <'dflt' > 'latn' <'dflt' > ) ]
Lookup: 1 0 0 "TrimCartouche" { "TrimCartouche" ("_end") } ['cart' ('DFLT' <'dflt' > 'latn' <'dflt' > ) ]
Lookup: 5 0 0 "Form hiatus-diphthong ligatures" { "Form hiatus-diphthong ligatures"  } ['calt' ('DFLT' <'dflt' > 'latn' <'dflt' > ) ]
Lookup: 5 8 0 "Connect cartouche start" { "Connect cartouche start"  } ['rclt' ('DFLT' <'dflt' > 'latn' <'dflt' > ) ]
Lookup: 6 8 0 "Connect cartouche medials" { "Connect cartouche medials"  } ['rclt' ('DFLT' <'dflt' > 'latn' <'dflt' > ) ]

StartChar: other_stop
Encoding: 1 988886 1
Width: 590
VWidth: 1100
GlyphClass: 2
Flags: W
LayerCount: 2
Fore
SplineSet
69.8813726664 128 m 1
 158.064290377 29.8485785477 l 1
 247.014016069 128 l 1
 158.064290377 226.151421452 l 1
 69.8813726664 128 l 1
69.834776233 384.948136144 m 1
 158.064515891 285.977384701 l 1
 247.061245064 384.947885246 l 1
 158.064290377 483.151421452 l 1
 69.834776233 384.948136144 l 1
409 1006 m 1
 409 -256 l 2
 409 -367.327822168 409 -367.327822168 373.225932525 -446.241206303 c 0
 366.290426069 -461.540117604 366.290426069 -461.540117604 358.695938358 -474.155797134 c 1
 392.955871721 -457.288241161 392.955871721 -457.288241161 422.081883988 -424.684496014 c 0
 485 -354.364248707 485 -354.364248707 485 -256 c 2
 485 1006 l 1
 409 1006 l 1
418.720466772 1243.10990027 m 1
 385.551593078 1226.2647233 385.551593078 1226.2647233 356.818859658 1194.57420848 c 0
 300.331948766 1131.44177866 300.331948766 1131.44177866 294.653143588 1046 c 1
 369.295345818 1046 l 1
 372.244625524 1144.48508435 372.244625524 1144.48508435 404.774067475 1216.2412063 c 0
 411.417798055 1230.89649435 411.417798055 1230.89649435 418.720466772 1243.10990027 c 1
EndSplineSet
EndChar

StartChar: quote
Encoding: 2 988883 2
Width: 461
VWidth: 1100
GlyphClass: 2
Flags: W
LayerCount: 2
Fore
SplineSet
141.985983931 128 m 1
 230.935709623 29.8485785477 l 1
 319.118627334 128 l 1
 230.935709623 226.151421452 l 1
 141.985983931 128 l 1
141.938754936 384.947885246 m 1
 230.935484109 285.977384701 l 1
 319.165223767 384.948136144 l 1
 230.935709623 483.151421452 l 1
 141.938754936 384.947885246 l 1
EndSplineSet
Substitution2: "WithCartouche" quote_c
EndChar

StartChar: null
Encoding: 3 988890 3
Width: 807
VWidth: 1100
GlyphClass: 2
Flags: W
LayerCount: 2
Fore
SplineSet
301.271553877 66.8594742309 m 0
 294.571133976 51.6457069903 294.571133976 51.6457069903 287.111613109 39.0495231173 c 1
 321.131018639 55.9078190589 321.131018639 55.9078190589 350.081883988 88.3155039859 c 0
 405.740669038 150.620114116 405.740669038 150.620114116 411.354065277 236 c 1
 336.699204367 236 l 1
 333.726711311 138.515387609 333.726711311 138.515387609 301.271553877 66.8594742309 c 0
283.913169904 424.678173833 m 0
 228.258587179 361.483016755 228.258587179 361.483016755 222.645502026 276 c 1
 297.295345818 276 l 1
 300.242563945 374.416242198 300.242563945 374.416242198 332.728446159 446.140525661 c 0
 339.333552772 461.137877492 339.333552772 461.137877492 346.676519585 473.591928263 c 1
 313.015787969 456.744126733 313.015787969 456.744126733 283.913169904 424.678173833 c 0
597 898 m 2
 597 -256 l 2
 597 -367.327822168 597 -367.327822168 561.225932525 -446.241206303 c 0
 554.427491389 -461.237767633 554.427491389 -461.237767633 546.939309465 -473.676989789 c 1
 580.910415325 -456.825063678 580.910415325 -456.825063678 610.086830062 -424.678173566 c 0
 672 -354 672 -354 672 -256 c 2
 672 898.190396392 l 2
 672.013607876 899.646439119 672.013607876 899.646439119 672.014492754 901.094727998 c 0
 672.014492754 998.375658029 672.014492754 998.375658029 610.078124393 1066.68782901 c 0
 548.141756033 1135 548.141756033 1135 461 1135 c 2
 231 1135 l 2
 143.946632906 1135 143.946632906 1135 82.9181160115 1066.68449601 c 0
 52.68953841 1032.89961517 52.68953841 1032.89961517 37.0839475822 993.196454805 c 1
 46.8820143149 1000.11050501 46.8820143149 1000.11050501 58.2648136924 1006.47148113 c 0
 129.843482999 1046 129.843482999 1046 231 1046 c 2
 460.796250378 1046 l 2
 462.126402026 1046.02560899 462.126402026 1046.02560899 463.452333991 1046.02564103 c 0
 518.809054251 1046.02564103 518.809054251 1046.02564103 557.907644893 1002.32721619 c 0
 597 958.635760482 597 958.635760482 597 898 c 2
EndSplineSet
EndChar

StartChar: diphthong
Encoding: 4 988878 4
Width: 0
VWidth: 1100
GlyphClass: 4
Flags: W
AnchorPoint: "vv" 462 -161 mark 0
LayerCount: 2
Fore
SplineSet
673 -256 m 2
 673 -148 l 1
 251 -148 l 1
 251 -236 l 1
 597 -236 l 1
 597 -256 l 2
 597 -367.257114568 597 -367.257114568 561.271553841 -446.14052566 c 0
 554.571134046 -461.35429267 554.571134046 -461.35429267 547.111613109 -473.950476883 c 1
 581.131018639 -457.092180941 581.131018639 -457.092180941 610.081883988 -424.684496014 c 0
 673 -354.364248707 673 -354.364248707 673 -256 c 2
EndSplineSet
MultipleSubs2: "DeleteDiphthong" 
EndChar

StartChar: subordination
Encoding: 5 988884 5
Width: 1154
VWidth: 1100
GlyphClass: 2
Flags: W
LayerCount: 2
Fore
SplineSet
20 20 m 1
 134.813974135 20 l 1
 135.028563182 -2.96102799484 135.028563182 -2.96102799484 135.028571429 -6.08816326531 c 0
 135.028571429 -113.470679311 135.028571429 -113.470679311 100.225932525 -190.241206303 c 0
 93.6251559478 -204.607602384 93.6251559478 -204.607602384 86.3649620762 -216.612127735 c 1
 119.722651971 -200.005964499 119.722651971 -200.005964499 148.17177249 -168.584547866 c 0
 211 -98.3647641789 211 -98.3647641789 211 0 c 2
 211 20 l 1
 366 20 l 1
 366 0 l 2
 366 -111.327822168 366 -111.327822168 330.225932525 -190.241206303 c 0
 323.334526987 -205.240147768 323.334526987 -205.240147768 315.782219176 -217.643414624 c 1
 349.801001022 -200.978773861 349.801001022 -200.978773861 379.181140342 -168.574208483 c 0
 442 -98.3648947476 442 -98.3648947476 442 0 c 2
 442 20 l 1
 597 20 l 1
 597 0 l 2
 597 -111.327822168 597 -111.327822168 561.225932525 -190.241206303 c 0
 554.602906824 -205.092839695 554.602906824 -205.092839695 547.23501167 -217.420815717 c 1
 580.994846573 -200.764973517 580.994846573 -200.764973517 610.181140342 -168.574208483 c 0
 673 -98.3648947476 673 -98.3648947476 673 0 c 2
 673 20 l 1
 827.813974135 20 l 1
 828.028563182 -2.96102799484 828.028563182 -2.96102799484 828.028571429 -6.08816326531 c 0
 828.028571429 -113.470679311 828.028571429 -113.470679311 793.225932525 -190.241206303 c 0
 786.527669252 -204.81977931 786.527669252 -204.81977931 779.15057134 -216.965864405 c 1
 812.387486012 -200.331915488 812.387486012 -200.331915488 841.181140342 -168.574208483 c 0
 904 -98.3648947476 904 -98.3648947476 904 0 c 2
 904 20 l 1
 1058.81397414 20 l 1
 1059.02856318 -2.96102799483 1059.02856318 -2.96102799483 1059.02857143 -6.08816326531 c 0
 1059.02857143 -113.470679311 1059.02857143 -113.470679311 1024.22593253 -190.241206303 c 0
 1017.52766925 -204.81977931 1017.52766925 -204.81977931 1010.15057134 -216.965864405 c 1
 1043.38748601 -200.331915488 1043.38748601 -200.331915488 1072.18114034 -168.574208483 c 0
 1135 -98.3648947476 1135 -98.3648947476 1135 0 c 2
 1135 108 l 1
 20 108 l 1
 20 20 l 1
EndSplineSet
EndChar

StartChar: oaomo
Encoding: 6 988869 6
Width: 288
VWidth: 1100
GlyphClass: 2
Flags: W
LayerCount: 2
Fore
SplineSet
178.199133373 215.445610292 m 0
 193 231.726563582 193 231.726563582 193 256.126240279 c 0
 193 280.525916976 193 280.525916976 178.446050859 297.262958488 c 0
 163.892101719 314 163.892101719 314 144 314 c 0
 124.107898281 314 124.107898281 314 109.553949141 297.262958488 c 0
 95 280.525916976 95 280.525916976 95 256.5 c 0
 95 232.474083024 95 232.474083024 109.553949141 215.737041512 c 0
 124.107898281 199 124.107898281 199 143.84232966 199 c 0
 163.576761039 199 163.576761039 199 178.199133373 215.445610292 c 0
EndSplineSet
Substitution2: "WithCartouche" oaomo_c
EndChar

StartChar: declarative_stop
Encoding: 7 988885 7
Width: 590
VWidth: 1100
GlyphClass: 2
Flags: W
LayerCount: 2
Fore
SplineSet
69.834776233 256.051863856 m 1
 158.064290377 157.848578548 l 1
 247.061245064 256.052114754 l 1
 158.064515891 355.022615299 l 1
 69.834776233 256.051863856 l 1
409 1006 m 1
 409 -256 l 2
 409 -367.327822168 409 -367.327822168 373.225932525 -446.241206303 c 0
 366.290426069 -461.540117604 366.290426069 -461.540117604 358.695938358 -474.155797134 c 1
 392.955871721 -457.288241161 392.955871721 -457.288241161 422.081883988 -424.684496014 c 0
 485 -354.364248707 485 -354.364248707 485 -256 c 2
 485 1006 l 1
 409 1006 l 1
418.720466772 1243.10990027 m 1
 385.551593078 1226.2647233 385.551593078 1226.2647233 356.818859658 1194.57420848 c 0
 300.331948766 1131.44177866 300.331948766 1131.44177866 294.653143588 1046 c 1
 369.295345818 1046 l 1
 372.244625524 1144.48508435 372.244625524 1144.48508435 404.774067475 1216.2412063 c 0
 411.417798055 1230.89649435 411.417798055 1230.89649435 418.720466772 1243.10990027 c 1
EndSplineSet
EndChar

StartChar: rising
Encoding: 8 988874 8
Width: 0
VWidth: 1100
GlyphClass: 4
Flags: W
AnchorPoint: "tone" 206 561 mark 0
LayerCount: 2
Fore
SplineSet
78 790.231122085 m 1
 78 707.991100137 l 1
 326 845.768877915 l 1
 326 928.008899863 l 1
 78 790.231122085 l 1
EndSplineSet
EndChar

StartChar: prefix
Encoding: 9 988882 9
Width: 288
VWidth: 1100
GlyphClass: 2
Flags: W
LayerCount: 2
Fore
SplineSet
178.199133373 87.4456102925 m 0
 193 103.726563582 193 103.726563582 193 128 c 0
 193 152.418407903 193 152.418407903 178.049722185 169.718216582 c 0
 164.067957919 184.999999412 164.067957919 184.999999412 144 185 c 2
 143.299709564 185.01205623 l 2
 142.435404156 185.041859864 142.435404156 185.041859864 141.598958333 185.041666667 c 0
 123.274564948 185.041666667 123.274564948 185.041666667 109.137282474 168.783791822 c 0
 95 152.525916976 95 152.525916976 95 128.5 c 0
 95 104.474083024 95 104.474083024 109.553949141 87.7370415118 c 0
 124.107898281 71 124.107898281 71 143.84232966 71 c 0
 163.576761039 71 163.576761039 71 178.199133373 87.4456102925 c 0
178.049722027 343.28178324 m 0
 193 361 193 361 193 384.762958488 c 0
 193 408.525916976 193 408.525916976 178.446050859 425.262958488 c 0
 163.892101719 442 163.892101719 442 144 442 c 0
 124.423238961 442 124.423238961 442 109.800866627 425.554389708 c 0
 95 409.273436418 95 409.273436418 95 385 c 0
 95 360.581592096 95 360.581592096 109.950277815 343.281783418 c 0
 123.932042081 328.000000588 123.932042081 328.000000588 144 328 c 0
 164.067958472 328 164.067958472 328 178.049722027 343.28178324 c 0
EndSplineSet
Substitution2: "WithCartouche" prefix_c
EndChar

StartChar: interrogative_stop
Encoding: 10 988887 10
Width: 590
VWidth: 1100
GlyphClass: 2
Flags: W
LayerCount: 2
Fore
SplineSet
70.3312761489 -0.500762137028 m 1
 158.064290377 -98.1514214523 l 1
 247.421112403 0.449209748545 l 1
 158.18741328 98.144725168 l 1
 70.3312761489 -0.500762137028 l 1
69.8879649599 255.097307349 m 1
 157.941749779 157.855301505 l 1
 247.01554705 256.998310641 l 1
 158.187618005 355.015335794 l 1
 69.8879649599 255.097307349 l 1
69.4775592013 512.550538056 m 1
 157.941749779 414.855301505 l 1
 246.56438363 513.496146139 l 1
 158.064290377 611.151421452 l 1
 69.4775592013 512.550538056 l 1
409 1006 m 1
 409 -256 l 2
 409 -367.327822168 409 -367.327822168 373.225932525 -446.241206303 c 0
 366.290426069 -461.540117604 366.290426069 -461.540117604 358.695938358 -474.155797134 c 1
 392.955871721 -457.288241161 392.955871721 -457.288241161 422.081883988 -424.684496014 c 0
 485 -354.364248707 485 -354.364248707 485 -256 c 2
 485 1006 l 1
 409 1006 l 1
418.720466772 1243.10990027 m 1
 385.551593078 1226.2647233 385.551593078 1226.2647233 356.818859658 1194.57420848 c 0
 300.331948766 1131.44177866 300.331948766 1131.44177866 294.653143588 1046 c 1
 369.295345818 1046 l 1
 372.244625524 1144.48508435 372.244625524 1144.48508435 404.774067475 1216.2412063 c 0
 411.417798055 1230.89649435 411.417798055 1230.89649435 418.720466772 1243.10990027 c 1
EndSplineSet
EndChar

StartChar: cartouche_start
Encoding: 11 988888 11
Width: 201
VWidth: 1100
GlyphClass: 2
Flags: W
LayerCount: 2
Fore
SplineSet
413 1046 m 1
 413 1135 l 1
 203.358242615 1135 l 1
 135.49127029 1125.60268123 135.49127029 1125.60268123 82.925771356 1066.69307035 c 0
 52.916412068 1032.7118841 52.916412068 1032.7118841 37.32616875 993.367124067 c 1
 47.0227683919 1000.1891617 47.0227683919 1000.1891617 58.3631250575 1006.52641983 c 0
 130.909164283 1046 130.909164283 1046 231 1046 c 2
 413 1046 l 1
EndSplineSet
EndChar

StartChar: low_glottal
Encoding: 12 988875 12
Width: 0
VWidth: 1100
GlyphClass: 4
Flags: W
AnchorPoint: "tone" 231 513 mark 0
LayerCount: 2
Fore
SplineSet
346 942 m 2
 115 942 l 2
 27.9466329056 942 27.9466329056 942 -33.5266835472 873.18658606 c 0
 -95 804.373172121 -95 804.373172121 -95 706 c 2
 -95 705.809603608 l 2
 -95.0136078759 704.353560881 -95.0136078759 704.353560881 -95.0144927536 702.905272002 c 0
 -95.0144927536 605.624341971 -95.0144927536 605.624341971 -33.1811403422 537.425791517 c 0
 -4.20902130005 504.994314977 -4.20902130005 504.994314977 29.8603649148 488.096855075 c 1
 22.3914349546 500.716270196 22.3914349546 500.716270196 15.6838818192 515.960709131 c 0
 -20 596 -20 596 -20 706 c 0
 -20 766.633696303 -20 766.633696303 19.0809574448 809.317058896 c 0
 58.0297838244 853.999999311 58.0297838244 853.999999311 115 854 c 2
 346 854 l 2
 433.141756033 854 433.141756033 854 495.181140342 922.425791517 c 0
 524.889639241 955.681573866 524.889639241 955.681573866 540.210137595 995.04983484 c 1
 530.673802341 988.485151511 530.673802341 988.485151511 519.637072907 982.473716117 c 0
 447 942 447 942 346 942 c 2
EndSplineSet
EndChar

StartChar: cartouche_end
Encoding: 13 988889 13
Width: 317
VWidth: 1100
GlyphClass: 2
Flags: W
LayerCount: 2
Fore
SplineSet
211 -256 m 2
 211 898 l 2
 211 997.288701507 211 997.288701507 148.181140342 1066.57420848 c 0
 87.0540999202 1135 87.0540999202 1135 0 1135 c 2
 -178 1135 l 1
 -178 1046 l 1
 -0.203753495052 1046 l 2
 1.12625512509 1046.02560713 1.12625512509 1046.02560713 2.4516765286 1046.02564103 c 0
 57.8856362273 1046.02564103 57.8856362273 1046.02564103 96.0070112345 1002.21605336 c 0
 134.999996842 958.55539378 134.999996842 958.55539378 135 898 c 2
 135 -255.905490771 l 2
 135.028563553 -259.008604666 135.028563553 -259.008604666 135.028571429 -262.088163265 c 0
 135.028571429 -369.470679311 135.028571429 -369.470679311 100.225932525 -446.241206303 c 0
 93.4820402446 -461.117439275 93.4820402446 -461.117439275 86.0593467745 -473.477347953 c 1
 119.531090661 -456.644339248 119.531090661 -456.644339248 148.081883988 -424.684496014 c 0
 211 -354.364248707 211 -354.364248707 211 -256 c 2
EndSplineSet
EndChar

StartChar: bubue
Encoding: 14 988850 14
Width: 461
VWidth: 1100
GlyphClass: 2
Flags: W
AnchorPoint: "vv" 462 -161 basechar 0
AnchorPoint: "tone" 231 513 basechar 0
LayerCount: 2
Fore
SplineSet
379.081883988 88.3155039859 m 0
 442 157.710484881 442 157.710484881 442 256.499593194 c 0
 442 355.288701507 442 355.288701507 379.181140342 424.574208483 c 0
 318.05409992 493 318.05409992 493 231.456171943 493 c 0
 144.858243967 493 144.858243967 493 82.8188596578 424.574208483 c 0
 26.3319487662 361.441778663 26.3319487662 361.441778663 20.6531435885 276 c 1
 96.1495469911 276 l 1
 101.800795094 324.236649116 101.800795094 324.236649116 134.092355107 360.32721619 c 0
 174.062740621 405 174.062740621 405 231 405 c 0
 288.039101508 405 288.039101508 405 327.007011334 360.216054188 c 0
 365.99999756 316.555394215 365.99999756 316.555394215 366 256 c 0
 366 145.672177832 366 145.672177832 330.225932525 66.7587936968 c 0
 323.290426069 51.4598823959 323.290426069 51.4598823959 315.695938358 38.8442028657 c 1
 349.955871721 55.7117588392 349.955871721 55.7117588392 379.081883988 88.3155039859 c 0
EndSplineSet
Substitution2: "WithCartouche" bubue_c
EndChar

StartChar: cecoa
Encoding: 15 988857 15
Width: 461
VWidth: 1100
GlyphClass: 2
Flags: W
AnchorPoint: "vv" 462 -161 basechar 0
AnchorPoint: "tone" 231 513 basechar 0
LayerCount: 2
Fore
SplineSet
231 108 m 0
 174.130377413 108 174.130377413 108 134.181428369 152.573314982 c 0
 95.0000004303 195.284990253 95.0000004303 195.284990253 95 256 c 0
 95 316.635760482 95 316.635760482 134.092355107 360.32721619 c 0
 166.528523864 396.5794048 166.528523864 396.5794048 211 403.478554674 c 1
 211 492.077685581 l 1
 137.769588123 485.181629585 137.769588123 485.181629585 82.8188596578 424.574208483 c 0
 20 354.364894748 20 354.364894748 20 256 c 0
 20 157.711298493 20 157.711298493 82.8188596578 88.4257915172 c 0
 143.94590008 20 143.94590008 20 231 20 c 0
 318.053367094 20 318.053367094 20 379.081883988 88.3155039859 c 0
 409.125629608 121.451988126 409.125629608 121.451988126 424.731836446 160.673700042 c 1
 415.010911802 153.829659588 415.010911802 153.829659588 403.735186308 147.528518871 c 0
 332.156517001 108 332.156517001 108 231 108 c 0
EndSplineSet
Substitution2: "WithCartouche" cecoa_c
EndChar

StartChar: dudeo
Encoding: 16 988854 16
Width: 461
VWidth: 1100
GlyphClass: 2
Flags: W
AnchorPoint: "tone" 231 513 basechar 0
LayerCount: 2
Fore
SplineSet
202 333 m 128,-1,1
 181.024088936 333 181.024088936 333 167.012044468 348.665414097 c 128,-1,2
 153 364.330828195 153 364.330828195 153 385 c 128,-1,3
 153 405.634462833 153 405.634462833 167.087257042 420.348960315 c 0,4,5
 181 437 181 437 201.315721688 437 c 128,-1,6
 221.631443376 437 221.631443376 437 236.51884425 420.755833954 c 0,7,8
 251 406 251 406 251 384.537120017 c 128,-1,9
 251 363.074240035 251 363.074240035 236.552073536 348.278292431 c 0,10,0
 223 333 223 333 202 333 c 128,-1,1
379.081883988 88.3155039859 m 0,11,12
 442 158 442 158 442 256.5 c 128,-1,13
 442 355 442 355 379.181140342 424.574208483 c 0,14,15
 326.235483242 483.213480278 326.235483242 483.213480278 202 493 c 1,16,-1
 202 493 l 1,17,-1
 225.502018326 489.766479938 l 2,18,19
 214 491 214 491 202 493 c 0,20,21
 166 496 166 496 134.907644893 461.67278381 c 0,22,23
 107 430 107 430 107 385 c 2,24,-1
 107 384.616054162 l 2,25,26
 107 383 107 383 106.971428571 381.983673469 c 0,27,28
 107 339 107 339 134.907644893 307.32721619 c 0,29,30
 163 276 163 276 202 276 c 128,-1,31
 241 276 241 276 268.99695884 307.220713979 c 0,32,33
 285.947525843 326.938957898 285.947525843 326.938957898 292.673038683 352.159631049 c 2,34,-1
 302.211485395 387.928806218 l 1,35,-1
 326.907644893 360.32721619 l 2,36,37
 366 317 366 317 366 256 c 0,38,39
 366 198 366 198 326.919042556 152.682941105 c 0,40,41
 288 108 288 108 231.109333706 108.000043974 c 0,42,43
 229 108 229 108 226.095332018 107.974358974 c 0,44,45
 128 108 128 108 57.2648136924 147.528518871 c 0,46,47
 46 154 46 154 37.1190502829 160.285477934 c 1,48,49
 52 121 52 121 81.9181160115 88.3155039859 c 0,50,51
 144 20 144 20 231 20 c 128,-1,52
 318 20 318 20 379.081883988 88.3155039859 c 0,11,12
EndSplineSet
Substitution2: "WithCartouche" dudeo_c
EndChar

StartChar: fofuaq
Encoding: 17 988852 17
Width: 461
VWidth: 1100
GlyphClass: 2
Flags: W
AnchorPoint: "vv" 462 -161 basechar 0
AnchorPoint: "tone" 231 513 basechar 0
LayerCount: 2
Fore
SplineSet
366 -256 m 2
 366 -367.327822168 366 -367.327822168 330.225932525 -446.241206303 c 0
 323.290426069 -461.540117604 323.290426069 -461.540117604 315.695938358 -474.155797134 c 1
 349.955871721 -457.288241161 349.955871721 -457.288241161 379.081883988 -424.684496014 c 0
 442 -354.364248707 442 -354.364248707 442 -256 c 2
 442 256 l 2
 442 355.288701507 442 355.288701507 379.181140342 424.574208483 c 0
 318.05409992 493 318.05409992 493 231.456171943 493 c 0
 144.858243967 493 144.858243967 493 82.8188596578 424.574208483 c 0
 26.3319487662 361.441778663 26.3319487662 361.441778663 20.6531435885 276 c 1
 96.1495469911 276 l 1
 101.800795094 324.236649116 101.800795094 324.236649116 134.092355107 360.32721619 c 0
 174.062740621 405 174.062740621 405 231 405 c 0
 288.039101508 405 288.039101508 405 327.007011334 360.216054188 c 0
 365.99999756 316.555394215 365.99999756 316.555394215 366 256 c 2
 366 -256 l 2
EndSplineSet
Substitution2: "WithCartouche" fofuaq_c
EndChar

StartChar: gugui
Encoding: 18 988867 18
Width: 605
VWidth: 1100
GlyphClass: 2
Flags: W
AnchorPoint: "vv" 577 -161 basechar 0
AnchorPoint: "tone" 231 513 basechar 0
LayerCount: 2
Fore
SplineSet
577 108 m 0
 521.129175925 108 521.129175925 108 481.181428256 152.573314365 c 0
 448.82678505 187.843111307 448.82678505 187.843111307 443.154257349 236 c 1
 364.845742651 236 l 1
 359.18228943 187.920150345 359.18228943 187.920150345 326.919042556 152.682941105 c 0
 287.970216176 108.000000689 287.970216176 108.000000689 231 108 c 0
 174.130377413 108 174.130377413 108 134.181428369 152.573314982 c 0
 95.0000004303 195.284990253 95.0000004303 195.284990253 95 256 c 0
 95 316.635760482 95 316.635760482 134.092355107 360.32721619 c 0
 166.528523864 396.5794048 166.528523864 396.5794048 211 403.478554674 c 1
 211 492.077685581 l 1
 137.769588123 485.181629585 137.769588123 485.181629585 82.8188596578 424.574208483 c 0
 20 354.364894748 20 354.364894748 20 256 c 0
 20 157.711298493 20 157.711298493 82.8188596578 88.4257915172 c 0
 143.94590008 20 143.94590008 20 231 20 c 0
 317.898401339 20 317.898401339 20 378.855237011 88.0621166745 c 1
 388.629660638 99.7914250268 l 1
 405.219240524 119.698920889 l 1
 420.285390376 98.6063110966 l 2
 422.521010255 95.4764432661 422.521010255 95.4764432661 428.918116012 88.3155039859 c 0
 489.946632906 20 489.946632906 20 577 20 c 0
 619.028014955 20 619.028014955 20 658.773119508 38.2324200699 c 0
 689.084077502 51.9445201148 689.084077502 51.9445201148 713.610467784 75.3711995343 c 1
 657.48905152 136.967875922 l 1
 620.518802669 108 620.518802669 108 577 108 c 0
EndSplineSet
Substitution2: "WithCartouche" gugui_c
EndChar

StartChar: hehaq
Encoding: 19 988870 19
Width: 461
VWidth: 1100
GlyphClass: 2
Flags: W
AnchorPoint: "tone" 231 513 basechar 0
LayerCount: 2
Fore
SplineSet
251 20 m 1
 366 20 l 1
 366 -256 l 2
 366 -367.327822168 366 -367.327822168 330.225932525 -446.241206303 c 0
 323.290426069 -461.540117604 323.290426069 -461.540117604 315.695938358 -474.155797134 c 1
 349.955871721 -457.288241161 349.955871721 -457.288241161 379.081883988 -424.684496014 c 0
 442 -354.364248707 442 -354.364248707 442 -256 c 2
 442 20 l 1
 693 20 l 2
 779.141756033 20 779.141756033 20 841.181140342 88.4257915172 c 0
 871.202625464 121.537723637 871.202625464 121.537723637 886.773110854 160.702766781 c 1
 877.034887552 153.843057802 877.034887552 153.843057802 865.735186308 147.528518871 c 0
 794.156517001 108 794.156517001 108 693 108 c 2
 442 108 l 1
 442 256 l 2
 442 355.288701507 442 355.288701507 379.181140342 424.574208483 c 0
 318.05409992 493 318.05409992 493 231.456171943 493 c 0
 144.858243967 493 144.858243967 493 82.8188596578 424.574208483 c 0
 26.3319487662 361.441778663 26.3319487662 361.441778663 20.6531435885 276 c 1
 96.1495469911 276 l 1
 101.800795094 324.236649116 101.800795094 324.236649116 134.092355107 360.32721619 c 0
 174.062740621 405 174.062740621 405 231 405 c 0
 288.039101508 405 288.039101508 405 327.007011334 360.216054188 c 0
 365.99999756 316.555394215 365.99999756 316.555394215 366 256 c 2
 366 108 l 1
 251 108 l 1
 251 20 l 1
EndSplineSet
Substitution2: "WithCartouche" hehaq_c
EndChar

StartChar: jujuo
Encoding: 20 988862 20
Width: 808
VWidth: 1100
GlyphClass: 2
Flags: W
CounterMasks: 1 70
AnchorPoint: "tone" 231 513 basechar 0
LayerCount: 2
Fore
SplineSet
577 405 m 0
 633.937259379 405 633.937259379 405 673.468629689 360.817880241 c 0
 713 316.635760482 713 316.635760482 713 256 c 0
 713 145.672177832 713 145.672177832 677.225932525 66.7587936968 c 0
 670.427491389 51.7622323665 670.427491389 51.7622323665 662.939309465 39.3230102115 c 1
 696.964846181 56.2019376442 696.964846181 56.2019376442 726.181140342 88.4257915172 c 0
 788 157.626007552 788 157.626007552 788 256 c 2
 788 256.190396392 l 2
 788.013607876 257.646439119 788.013607876 257.646439119 788.014492754 259.094727998 c 0
 788.014492754 356.375658029 788.014492754 356.375658029 726.078124393 424.687829015 c 0
 664.141756033 493 664.141756033 493 577.592555134 493 c 0
 491.043354235 493 491.043354235 493 429.096551224 424.880029208 c 1
 419.370339362 413.208574973 l 1
 402.780759476 393.301079111 l 1
 387.714609624 414.393688903 l 2
 385.478989745 417.523556734 385.478989745 417.523556734 379.081883988 424.684496014 c 0
 318.053367094 493 318.053367094 493 231.455805531 493 c 0
 144.858243967 493 144.858243967 493 82.8188596578 424.574208483 c 0
 26.3319487662 361.441778663 26.3319487662 361.441778663 20.6531435885 276 c 1
 96.1495469911 276 l 1
 101.800795094 324.236649116 101.800795094 324.236649116 134.092355107 360.32721619 c 0
 174.062740621 405 174.062740621 405 231 405 c 0
 288.039101508 405 288.039101508 405 327.007011334 360.216054188 c 0
 359.208151569 324.160261323 359.208151569 324.160261323 364.850453009 276 c 1
 443.149546991 276 l 1
 448.791845931 324.160262876 448.791845931 324.160262876 480.992987992 360.216053424 c 0
 520 405 520 405 577 405 c 0
EndSplineSet
Substitution2: "WithCartouche" jujuo_c
EndChar

StartChar: kikue
Encoding: 21 988868 21
Width: 461
VWidth: 1100
GlyphClass: 2
Flags: W
AnchorPoint: "tone" 231 513 basechar 0
LayerCount: 2
Fore
SplineSet
231 -314 m 0
 250.892101719 -314 250.892101719 -314 265.446050859 -297.262958488 c 0
 280 -280.525916976 280 -280.525916976 280 -256.5 c 0
 280 -232.474083024 280 -232.474083024 265.446050859 -215.737041512 c 0
 250.892101719 -199 250.892101719 -199 231 -199 c 0
 211.423238961 -199 211.423238961 -199 196.800866627 -215.445610292 c 0
 182 -231.726563582 182 -231.726563582 182 -256.126240279 c 0
 182 -280.525916976 182 -280.525916976 196.553949141 -297.262958488 c 0
 211.107898281 -314 211.107898281 -314 231 -314 c 0
231 108 m 0
 174.130377413 108 174.130377413 108 134.181428369 152.573314982 c 0
 95.0000004303 195.284990253 95.0000004303 195.284990253 95 256 c 0
 95 316.635760482 95 316.635760482 134.092355107 360.32721619 c 0
 166.528523864 396.5794048 166.528523864 396.5794048 211 403.478554674 c 1
 211 492.077685581 l 1
 137.769588123 485.181629585 137.769588123 485.181629585 82.8188596578 424.574208483 c 0
 20 354.364894748 20 354.364894748 20 256 c 0
 20 157.711298493 20 157.711298493 82.8188596578 88.4257915172 c 0
 143.94590008 20 143.94590008 20 231 20 c 0
 318.053367094 20 318.053367094 20 379.081883988 88.3155039859 c 0
 409.125629608 121.451988126 409.125629608 121.451988126 424.731836446 160.673700042 c 1
 415.010911802 153.829659588 415.010911802 153.829659588 403.735186308 147.528518871 c 0
 332.156517001 108 332.156517001 108 231 108 c 0
EndSplineSet
Substitution2: "WithCartouche" kikue_c
EndChar

StartChar: laoliq
Encoding: 22 988860 22
Width: 923
VWidth: 1100
GlyphClass: 2
Flags: W
AnchorPoint: "tone" 231 513 basechar 0
LayerCount: 2
Fore
SplineSet
528.000599326 -255.683475342 m 0
 528.85823002 -280.362880364 528.85823002 -280.362880364 543.306056506 -297.181440182 c 0
 557.753882993 -314 557.753882993 -314 577.322992356 -314 c 0
 596.545569991 -314 596.545569991 -314 611.724870347 -297.176782429 c 0
 626.904170703 -280.353564857 626.904170703 -280.353564857 626.9993537 -256.327811498 c 0
 626.143190291 -232.638755254 626.143190291 -232.638755254 611.517646005 -215.819377627 c 0
 596.892101719 -199 596.892101719 -199 577.5 -199 c 0
 558.107898281 -199 558.107898281 -199 544.096227849 -215.113420998 c 2
 543.466757367 -215.804265374 l 2
 528.090870992 -231.912336815 528.090870992 -231.912336815 528.000599326 -255.683475342 c 0
904 20 m 1
 904 256 l 2
 904 355.288701507 904 355.288701507 841.181140342 424.574208483 c 0
 780.05409992 493 780.05409992 493 693.456171943 493 c 0
 606.858243967 493 606.858243967 493 544.818859658 424.574208483 c 0
 488.331948766 361.441778663 488.331948766 361.441778663 482.653143588 276 c 1
 558.149546991 276 l 1
 563.800795094 324.236649116 563.800795094 324.236649116 596.092355107 360.32721619 c 0
 636.062740621 405 636.062740621 405 693 405 c 0
 750.528871105 405 750.528871105 405 790.104837966 360.103512843 c 0
 828 316.466659591 828 316.466659591 828 256 c 2
 828 108 l 1
 397.355253792 108 l 1
 413.417863951 137.534476745 l 2
 442 190.088726899 442 190.088726899 442 256 c 0
 442 355.288701507 442 355.288701507 379.181140342 424.574208483 c 0
 318.05409992 493 318.05409992 493 231.456171943 493 c 0
 144.858243967 493 144.858243967 493 82.8188596578 424.574208483 c 0
 26.3319487662 361.441778663 26.3319487662 361.441778663 20.6531435885 276 c 1
 96.1495469911 276 l 1
 101.800795094 324.236649116 101.800795094 324.236649116 134.092355107 360.32721619 c 0
 174.062740621 405 174.062740621 405 231 405 c 0
 288.039101508 405 288.039101508 405 327.007011334 360.216054188 c 0
 365.99999756 316.555394215 365.99999756 316.555394215 366 256 c 0
 366 145.672177832 366 145.672177832 330.225932525 66.7587936968 c 0
 317.737558309 38.659951709 317.737558309 38.659951709 302.825138866 20 c 1
 904 20 l 1
EndSplineSet
Substitution2: "WithCartouche" laoliq_c
EndChar

StartChar: mamei
Encoding: 23 988848 23
Width: 1385
VWidth: 1100
GlyphClass: 2
Flags: W
AnchorPoint: "tone" 231 513 basechar 0
LayerCount: 2
Fore
SplineSet
1366 -256 m 2
 1366 256 l 2
 1366 355.288701507 1366 355.288701507 1303.18114034 424.574208483 c 0
 1242.05409992 493 1242.05409992 493 1155 493 c 0
 1067.92184178 493 1067.92184178 493 1005.91316994 424.678173566 c 0
 950.258587406 361.483016627 950.258587406 361.483016627 944.645502026 276 c 1
 1020.14954699 276 l 1
 1025.80079509 324.236649116 1025.80079509 324.236649116 1058.09235511 360.32721619 c 0
 1098.06274062 405 1098.06274062 405 1155 405 c 0
 1212.5288711 405 1212.5288711 405 1252.10483797 360.103512843 c 0
 1290 316.466659591 1290 316.466659591 1290 256 c 2
 1290 108 l 1
 904 108 l 1
 904 256 l 2
 904 355.288701507 904 355.288701507 841.181140342 424.574208483 c 0
 780.05409992 493 780.05409992 493 693.456171943 493 c 0
 606.858243967 493 606.858243967 493 544.818859658 424.574208483 c 0
 488.331948766 361.441778663 488.331948766 361.441778663 482.653143588 276 c 1
 558.149546991 276 l 1
 563.800795094 324.236649116 563.800795094 324.236649116 596.092355107 360.32721619 c 0
 636.062740621 405 636.062740621 405 693 405 c 0
 750.528871105 405 750.528871105 405 790.104837966 360.103512843 c 0
 828 316.466659591 828 316.466659591 828 256 c 2
 828 108 l 1
 397.355253792 108 l 1
 413.417863951 137.534476745 l 2
 442 190.088726899 442 190.088726899 442 256 c 0
 442 355.288701507 442 355.288701507 379.181140342 424.574208483 c 0
 318.05409992 493 318.05409992 493 231.456171943 493 c 0
 144.858243967 493 144.858243967 493 82.8188596578 424.574208483 c 0
 26.3319487662 361.441778663 26.3319487662 361.441778663 20.6531435885 276 c 1
 96.1495469911 276 l 1
 101.800795094 324.236649116 101.800795094 324.236649116 134.092355107 360.32721619 c 0
 174.062740621 405 174.062740621 405 231 405 c 0
 288.039101508 405 288.039101508 405 327.007011334 360.216054188 c 0
 365.99999756 316.555394215 365.99999756 316.555394215 366 256 c 0
 366 145.672177832 366 145.672177832 330.225932525 66.7587936968 c 0
 317.737558309 38.659951709 317.737558309 38.659951709 302.825138866 20 c 1
 1290 20 l 1
 1290 -255.905490771 l 2
 1290.02856355 -259.008604666 1290.02856355 -259.008604666 1290.02857143 -262.088163265 c 0
 1290.02857143 -369.470679311 1290.02857143 -369.470679311 1255.22593253 -446.241206303 c 0
 1248.48204024 -461.117439275 1248.48204024 -461.117439275 1241.05934677 -473.477347953 c 1
 1274.53109066 -456.644339248 1274.53109066 -456.644339248 1303.08188399 -424.684496014 c 0
 1366 -354.364248707 1366 -354.364248707 1366 -256 c 2
EndSplineSet
Substitution2: "WithCartouche" mamei_c
EndChar

StartChar: nanaq
Encoding: 24 988853 24
Width: 461
VWidth: 1100
GlyphClass: 2
Flags: W
AnchorPoint: "tone" 231 513 basechar 0
LayerCount: 2
Fore
SplineSet
231 405 m 0
 288.039101508 405 288.039101508 405 327.007011334 360.216054188 c 0
 365.99999756 316.555394215 365.99999756 316.555394215 366 256 c 0
 366 195.366303697 366 195.366303697 326.919042555 152.682941104 c 0
 287.970216176 108.000000689 287.970216176 108.000000689 231 108 c 0
 174.130377413 108 174.130377413 108 134.181428369 152.573314982 c 0
 95.0000004303 195.284990253 95.0000004303 195.284990253 95 256 c 0
 95 316.635760482 95 316.635760482 134.531370311 360.817880241 c 0
 174.062740621 405 174.062740621 405 231 405 c 0
379.081883988 88.3155039859 m 0
 442 157.710484881 442 157.710484881 442 256.499593194 c 0
 442 355.288701507 442 355.288701507 379.181140342 424.574208483 c 0
 318.05409992 493 318.05409992 493 231.456171943 493 c 0
 144.858243967 493 144.858243967 493 82.8188596578 424.574208483 c 0
 20 354.364894748 20 354.364894748 20 256 c 0
 20 157.711298493 20 157.711298493 82.8188596578 88.4257915172 c 0
 143.94590008 20 143.94590008 20 231 20 c 0
 318.053367094 20 318.053367094 20 379.081883988 88.3155039859 c 0
424.916052418 674.803545195 m 1
 355.349241985 625.713410091 355.349241985 625.713410091 251 621.40650531 c 1
 251 533.902222105 l 1
 324.951485391 540.721774213 324.951485391 540.721774213 379.081883988 601.315503986 c 0
 409.31046159 635.100384835 409.31046159 635.100384835 424.916052418 674.803545195 c 1
EndSplineSet
Substitution2: "WithCartouche" nanaq_c
EndChar

StartChar: pipoq
Encoding: 25 988851 25
Width: 461
VWidth: 1100
GlyphClass: 2
Flags: W
AnchorPoint: "tone" 231 513 basechar 0
LayerCount: 2
Fore
SplineSet
231 405 m 0
 288.039101508 405 288.039101508 405 327.007011334 360.216054188 c 0
 365.99999756 316.555394215 365.99999756 316.555394215 366 256 c 0
 366 195.366303697 366 195.366303697 326.919042555 152.682941104 c 0
 287.970216176 108.000000689 287.970216176 108.000000689 231 108 c 0
 174.130377413 108 174.130377413 108 134.181428369 152.573314982 c 0
 95.0000004303 195.284990253 95.0000004303 195.284990253 95 256 c 0
 95 316.635760482 95 316.635760482 134.531370311 360.817880241 c 0
 174.062740621 405 174.062740621 405 231 405 c 0
442 -256 m 2
 442 256 l 2
 442 355.288701507 442 355.288701507 379.181140342 424.574208483 c 0
 318.05409992 493 318.05409992 493 231.456171943 493 c 0
 144.858243967 493 144.858243967 493 82.8188596578 424.574208483 c 0
 20 354.364894748 20 354.364894748 20 256 c 0
 20 157.711298493 20 157.711298493 82.8188596578 88.4257915172 c 0
 143.94590008 20 143.94590008 20 231 20 c 0
 288.190872627 20 288.190872627 20 335.304513107 49.8990410738 c 2
 366 69.3788692943 l 1
 366 -256 l 2
 366 -367.327822168 366 -367.327822168 330.225932525 -446.241206303 c 0
 323.290426069 -461.540117604 323.290426069 -461.540117604 315.695938358 -474.155797134 c 1
 349.955871721 -457.288241161 349.955871721 -457.288241161 379.081883988 -424.684496014 c 0
 442 -354.364248707 442 -354.364248707 442 -256 c 2
EndSplineSet
Substitution2: "WithCartouche" pipoq_c
EndChar

StartChar: aqaq
Encoding: 26 988866 26
Width: 461
VWidth: 1100
GlyphClass: 2
Flags: W
AnchorPoint: "tone" 231 513 basechar 0
LayerCount: 2
Fore
SplineSet
366 69.3788692943 m 1
 366 -256 l 2
 366 -367.327822168 366 -367.327822168 330.225932525 -446.241206303 c 0
 323.290426069 -461.540117604 323.290426069 -461.540117604 315.695938358 -474.155797134 c 1
 349.955871721 -457.288241161 349.955871721 -457.288241161 379.081883988 -424.684496014 c 0
 442 -354.364248707 442 -354.364248707 442 -256 c 2
 442 236 l 1
 364.845742651 236 l 1
 359.18228943 187.920150345 359.18228943 187.920150345 326.919042556 152.682941105 c 0
 287.970216176 108.000000689 287.970216176 108.000000689 231 108 c 0
 174.130377413 108 174.130377413 108 134.181428369 152.573314982 c 0
 95.0000004303 195.284990253 95.0000004303 195.284990253 95 256 c 0
 95 316.635760482 95 316.635760482 134.092355107 360.32721619 c 0
 166.528523864 396.5794048 166.528523864 396.5794048 211 403.478554674 c 1
 211 492.077685581 l 1
 137.769588123 485.181629585 137.769588123 485.181629585 82.8188596578 424.574208483 c 0
 20 354.364894748 20 354.364894748 20 256 c 0
 20 157.711298493 20 157.711298493 82.8188596578 88.4257915172 c 0
 143.94590008 20 143.94590008 20 231 20 c 0
 288.190872627 20 288.190872627 20 335.304513107 49.8990410738 c 2
 366 69.3788692943 l 1
EndSplineSet
Substitution2: "WithCartouche" aqaq_c
EndChar

StartChar: rairua
Encoding: 27 988859 27
Width: 923
VWidth: 1100
GlyphClass: 2
Flags: W
AnchorPoint: "tone" 231 513 basechar 0
LayerCount: 2
Fore
SplineSet
904 -256 m 2
 904 256 l 2
 904 355.288701507 904 355.288701507 841.181140342 424.574208483 c 0
 780.05409992 493 780.05409992 493 693.456171943 493 c 0
 606.858243967 493 606.858243967 493 544.818859658 424.574208483 c 0
 488.331948766 361.441778663 488.331948766 361.441778663 482.653143588 276 c 1
 558.149546991 276 l 1
 563.800795094 324.236649116 563.800795094 324.236649116 596.092355107 360.32721619 c 0
 636.062740621 405 636.062740621 405 693 405 c 0
 750.528871105 405 750.528871105 405 790.104837966 360.103512843 c 0
 828 316.466659591 828 316.466659591 828 256 c 2
 828 108 l 1
 397.355253792 108 l 1
 413.417863951 137.534476745 l 2
 442 190.088726899 442 190.088726899 442 256 c 0
 442 355.288701507 442 355.288701507 379.181140342 424.574208483 c 0
 318.05409992 493 318.05409992 493 231.456171943 493 c 0
 144.858243967 493 144.858243967 493 82.8188596578 424.574208483 c 0
 26.3319487662 361.441778663 26.3319487662 361.441778663 20.6531435885 276 c 1
 96.1495469911 276 l 1
 101.800795094 324.236649116 101.800795094 324.236649116 134.092355107 360.32721619 c 0
 174.062740621 405 174.062740621 405 231 405 c 0
 288.039101508 405 288.039101508 405 327.007011334 360.216054188 c 0
 365.99999756 316.555394215 365.99999756 316.555394215 366 256 c 0
 366 145.672177832 366 145.672177832 330.225932525 66.7587936968 c 0
 317.737558309 38.659951709 317.737558309 38.659951709 302.825138866 20 c 1
 828 20 l 1
 828 -255.905490771 l 2
 828.028563553 -259.008604666 828.028563553 -259.008604666 828.028571429 -262.088163265 c 0
 828.028571429 -369.470679311 828.028571429 -369.470679311 793.225932525 -446.241206303 c 0
 786.482040245 -461.117439275 786.482040245 -461.117439275 779.059346775 -473.477347953 c 1
 812.531090661 -456.644339248 812.531090661 -456.644339248 841.081883988 -424.684496014 c 0
 904 -354.364248707 904 -354.364248707 904 -256 c 2
EndSplineSet
Substitution2: "WithCartouche" rairua_c
EndChar

StartChar: saqseoq
Encoding: 28 988858 28
Width: 461
VWidth: 1100
GlyphClass: 2
Flags: W
AnchorPoint: "vv" 462 -161 basechar 0
AnchorPoint: "tone" 231 513 basechar 0
LayerCount: 2
Fore
SplineSet
231 405 m 0
 288.039101508 405 288.039101508 405 327.007011334 360.216054188 c 0
 365.99999756 316.555394215 365.99999756 316.555394215 366 256 c 0
 366 195.366303697 366 195.366303697 326.919042555 152.682941104 c 0
 287.970216176 108.000000689 287.970216176 108.000000689 231 108 c 0
 174.130377413 108 174.130377413 108 134.181428369 152.573314982 c 0
 95.0000004303 195.284990253 95.0000004303 195.284990253 95 256 c 0
 95 316.635760482 95 316.635760482 134.531370311 360.817880241 c 0
 174.062740621 405 174.062740621 405 231 405 c 0
379.081883988 88.3155039859 m 0
 442 157.710484881 442 157.710484881 442 256.499593194 c 0
 442 355.288701507 442 355.288701507 379.181140342 424.574208483 c 0
 318.05409992 493 318.05409992 493 231.456171943 493 c 0
 144.858243967 493 144.858243967 493 82.8188596578 424.574208483 c 0
 20 354.364894748 20 354.364894748 20 256 c 0
 20 157.711298493 20 157.711298493 82.8188596578 88.4257915172 c 0
 143.94590008 20 143.94590008 20 231 20 c 0
 318.053367094 20 318.053367094 20 379.081883988 88.3155039859 c 0
EndSplineSet
Substitution2: "WithCartouche" saqseoq_c
EndChar

StartChar: titieq
Encoding: 29 988855 29
Width: 808
VWidth: 1100
GlyphClass: 2
Flags: W
CounterMasks: 1 1c
AnchorPoint: "tone" 231 513 basechar 0
LayerCount: 2
Fore
SplineSet
231 405 m 0
 288.039101508 405 288.039101508 405 327.007011334 360.216054188 c 0
 365.99999756 316.555394215 365.99999756 316.555394215 366 256 c 0
 366 195.366303697 366 195.366303697 326.919042555 152.682941104 c 0
 287.970216176 108.000000689 287.970216176 108.000000689 231 108 c 0
 174.130377413 108 174.130377413 108 134.181428369 152.573314982 c 0
 95.0000004303 195.284990253 95.0000004303 195.284990253 95 256 c 0
 95 316.635760482 95 316.635760482 134.531370311 360.817880241 c 0
 174.062740621 405 174.062740621 405 231 405 c 0
442 256 m 2
 442 513 l 2
 442 573.635760482 442 573.635760482 480.983206423 617.274520705 c 0
 519.966412847 660.913280929 519.966412847 660.913280929 576.787870378 660.999838435 c 0
 578.122225294 661.025608707 578.122225294 661.025608707 579.452333991 661.025641026 c 0
 634.809054251 661.025641026 634.809054251 661.025641026 673.907644893 617.32721619 c 0
 713 573.635760482 713 573.635760482 713 513 c 2
 713 256 l 2
 713 145.672177832 713 145.672177832 677.225932525 66.7587936968 c 0
 670.427491389 51.7622323665 670.427491389 51.7622323665 662.939309465 39.3230102115 c 1
 696.964846181 56.2019376442 696.964846181 56.2019376442 726.181140342 88.4257915172 c 0
 788 157.626007552 788 157.626007552 788 256 c 2
 788 513.192190601 l 2
 788.013591034 514.632840174 788.013591034 514.632840174 788.014492754 516.065952531 c 0
 788.014492754 612.375658029 788.014492754 612.375658029 726.181140342 680.574208483 c 0
 664.100410392 749.958553722 664.100410392 749.958553722 577.108045725 749.999978923 c 0
 490.905761925 749.052402662 490.905761925 749.052402662 428.452880963 680.170552085 c 0
 366 611.288701507 366 611.288701507 366 513 c 2
 366 480 l 1
 366 443.23824492 l 1
 335.155709283 463.196315384 l 2
 289.095469422 493 289.095469422 493 231 493 c 0
 144.858243967 493 144.858243967 493 82.8188596578 424.574208483 c 0
 20 354.364894748 20 354.364894748 20 256 c 0
 20 157.711298493 20 157.711298493 82.8188596578 88.4257915172 c 0
 143.94590008 20 143.94590008 20 231 20 c 0
 318.053367094 20 318.053367094 20 379.081883988 88.3155039859 c 0
 442 157.710484881 442 157.710484881 442 256 c 2
EndSplineSet
Substitution2: "WithCartouche" titieq_c
EndChar

StartChar: veva
Encoding: 30 988865 30
Width: 461
VWidth: 1100
GlyphClass: 2
Flags: W
AnchorPoint: "tone" 693 513 basechar 0
LayerCount: 2
Fore
SplineSet
379.081883988 88.3155039859 m 0
 442 157.710484881 442 157.710484881 442 256.499593194 c 0
 442 355.288701507 442 355.288701507 379.181140342 424.574208483 c 0
 318.05409992 493 318.05409992 493 231 493 c 2
 95 493 l 1
 95 513 l 2
 95 623.327822168 95 623.327822168 130.774067475 702.241206303 c 0
 137.46299231 717.192920641 137.46299231 717.192920641 144.810431355 729.619201778 c 1
 111.406325169 712.574282318 111.406325169 712.574282318 82.9181160115 680.684496014 c 0
 20 611.289515119 20 611.289515119 20 513 c 2
 20 405 l 1
 231 405 l 2
 288.039101508 405 288.039101508 405 327.007011334 360.216054188 c 0
 365.99999756 316.555394215 365.99999756 316.555394215 366 256 c 0
 366 145.672177832 366 145.672177832 330.225932525 66.7587936968 c 0
 323.290426069 51.4598823959 323.290426069 51.4598823959 315.695938358 38.8442028657 c 1
 349.955871721 55.7117588392 349.955871721 55.7117588392 379.081883988 88.3155039859 c 0
EndSplineSet
Substitution2: "WithCartouche" veva_c
EndChar

StartChar: nhanhoq
Encoding: 31 988861 31
Width: 461
VWidth: 1100
GlyphClass: 2
Flags: W
AnchorPoint: "tone" 231 513 basechar 0
LayerCount: 2
Fore
SplineSet
231 3 m 1025
202 76 m 128
 181.024088936 76 181.024088936 76 167.012044468 91.6654140973 c 128
 153 107.330828195 153 107.330828195 153 128 c 128
 153 148.634462833 153 148.634462833 167.087257042 163.348960315 c 0
 181 180 181 180 201.315721688 180 c 128
 221.631443376 180 221.631443376 180 236.51884425 163.755833954 c 0
 251 149 251 149 251 128.165700889 c 128
 251 107.331401779 251 107.331401779 236.951309588 91.7217457658 c 128
 222.976424463 76 222.976424463 76 202 76 c 128
379.181140342 88.4257915172 m 0
 442 157.711298493 442 157.711298493 442 256.5 c 128
 442 355.288701507 442 355.288701507 379.181140342 424.574208483 c 0
 318.05409992 493 318.05409992 493 231.456171943 493 c 128
 144.858243967 493 144.858243967 493 82.8188596578 424.574208483 c 0
 26.3319487662 361.441778663 26.3319487662 361.441778663 20.6531435885 276 c 1
 96.1495469911 276 l 1
 101.800795094 324.236649116 101.800795094 324.236649116 134.092355107 360.32721619 c 0
 174.062740621 405 174.062740621 405 231 405 c 128
 288.039101508 405 288.039101508 405 327.007011334 360.216054188 c 0
 365.99999756 316.555394215 365.99999756 316.555394215 365.99999878 256.459816866 c 128
 366 196.364239518 366 196.364239518 326.907644893 152.67278381 c 2
 302.462309418 125.351526514 l 1
 292.717516489 160.676400884 l 2
 285.921989501 185.310186215 285.921989501 185.310186215 268.942003493 205.83242671 c 0
 241.010530868 235.999997347 241.010530868 235.999997347 202 236 c 128
 162.901004832 236 162.901004832 236 134.919777017 205.68291322 c 0
 107.000002753 173.390941153 107.000002753 173.390941153 107 128 c 2
 107 127.616054162 l 2
 106.975013061 126.291746392 106.975013061 126.291746392 106.971428571 124.983673469 c 0
 106.971428571 81.6153578759 106.971428571 81.6153578759 134.818571822 50.4268719638 c 0
 162.836221705 20.0000004476 162.836221705 20.0000004476 202 20 c 0
 214.865171785 20 214.865171785 20 226.795726145 22.5565473629 c 2
 251 27.7431774747 l 1
 251 20.9223144191 l 1
 324.230411877 27.8183704155 324.230411877 27.8183704155 379.181140342 88.4257915172 c 0
EndSplineSet
Substitution2: "WithCartouche" nhanhoq_c
EndChar

StartChar: shoshia
Encoding: 32 988864 32
Width: 461
VWidth: 1100
GlyphClass: 2
Flags: W
AnchorPoint: "tone" 231 513 basechar 0
LayerCount: 2
Fore
SplineSet
425.302950884 547.047886998 m 1
 348.765114692 493 348.765114692 493 231 493 c 0
 144.858243967 493 144.858243967 493 82.8188596578 424.574208483 c 0
 20 354.364894748 20 354.364894748 20 256 c 0
 20 157.711298493 20 157.711298493 82.8188596578 88.4257915172 c 0
 143.94590008 20 143.94590008 20 231 20 c 0
 288.190872627 20 288.190872627 20 335.304513107 49.8990410738 c 2
 366 69.3788692943 l 1
 366 -256 l 2
 366 -367.327822168 366 -367.327822168 330.225932525 -446.241206303 c 0
 323.290426069 -461.540117604 323.290426069 -461.540117604 315.695938358 -474.155797134 c 1
 349.955871721 -457.288241161 349.955871721 -457.288241161 379.081883988 -424.684496014 c 0
 442 -354.364248707 442 -354.364248707 442 -256 c 2
 442 236 l 1
 364.845742651 236 l 1
 359.18228943 187.920150345 359.18228943 187.920150345 326.919042556 152.682941105 c 0
 287.970216176 108.000000689 287.970216176 108.000000689 231 108 c 0
 174.130377413 108 174.130377413 108 134.181428369 152.573314982 c 0
 95.0000004303 195.284990253 95.0000004303 195.284990253 95 256 c 0
 95 316.635760482 95 316.635760482 134.531370311 360.817880241 c 0
 174.062740621 405 174.062740621 405 231 405 c 0
 317.141756033 405 317.141756033 405 379.181140342 473.425791517 c 0
 409.714264137 507.102030997 409.714264137 507.102030997 425.302950884 547.047886998 c 1
EndSplineSet
Substitution2: "WithCartouche" shoshia_c
EndChar

StartChar: chichao
Encoding: 33 988863 33
Width: 461
VWidth: 1100
GlyphClass: 2
Flags: W
AnchorPoint: "tone" 231 513 basechar 0
LayerCount: 2
Fore
SplineSet
425.302950884 547.047886998 m 1
 348.765114692 493 348.765114692 493 231 493 c 0
 144.858243967 493 144.858243967 493 82.8188596578 424.574208483 c 0
 20 354.364894748 20 354.364894748 20 256 c 0
 20 157.711298493 20 157.711298493 82.8188596578 88.4257915172 c 0
 143.94590008 20 143.94590008 20 231 20 c 0
 318.053367094 20 318.053367094 20 379.081883988 88.3155039859 c 0
 409.125629608 121.451988126 409.125629608 121.451988126 424.731836446 160.673700042 c 1
 415.010911802 153.829659588 415.010911802 153.829659588 403.735186308 147.528518871 c 0
 332.156517001 108 332.156517001 108 231 108 c 0
 174.130377413 108 174.130377413 108 134.181428369 152.573314982 c 0
 95.0000004303 195.284990253 95.0000004303 195.284990253 95 256 c 0
 95 316.635760482 95 316.635760482 134.531370311 360.817880241 c 0
 174.062740621 405 174.062740621 405 231 405 c 0
 317.141756033 405 317.141756033 405 379.181140342 473.425791517 c 0
 409.714264137 507.102030997 409.714264137 507.102030997 425.302950884 547.047886998 c 1
EndSplineSet
Substitution2: "WithCartouche" chichao_c
EndChar

StartChar: zozeo
Encoding: 34 988856 34
Width: 461
VWidth: 1100
GlyphClass: 2
Flags: W
AnchorPoint: "tone" 231 513 basechar 0
LayerCount: 2
Fore
SplineSet
49 -128 m 2
 49 -256.190396392 l 2
 48.9863921241 -257.646439119 48.9863921241 -257.646439119 48.9855072464 -259.094727998 c 0
 48.9855072464 -356.375658029 48.9855072464 -356.375658029 110.818859658 -424.574208483 c 0
 139.542996223 -456.123669956 139.542996223 -456.123669956 173.72585388 -473.084596813 c 1
 166.410653737 -460.864099064 166.410653737 -460.864099064 159.733549568 -446.151236018 c 0
 124 -366.276242866 124 -366.276242866 124 -256 c 2
 124 -128 l 2
 124 -68.3642395179 124 -68.3642395179 163.531370311 -24.1821197589 c 0
 203.062740621 20 203.062740621 20 260 20 c 2
 366 20 l 1
 366 -256 l 2
 366 -367.326503515 366 -367.326503515 330.286211304 -446.106919755 c 0
 323.539808524 -461.286326012 323.539808524 -461.286326012 316.060385628 -473.812875215 c 1
 350.20266291 -456.877661613 350.20266291 -456.877661613 379.109666865 -424.653460434 c 0
 442 -354.364264577 442 -354.364264577 442 -256 c 2
 442 20 l 1
 693 20 l 2
 779.141756033 20 779.141756033 20 841.181140342 88.4257915172 c 0
 871.202625464 121.537723637 871.202625464 121.537723637 886.773110854 160.702766781 c 1
 877.034887552 153.843057802 877.034887552 153.843057802 865.735186308 147.528518871 c 0
 794.156517001 108 794.156517001 108 693 108 c 2
 442 108 l 1
 442 256 l 2
 442 355.288701507 442 355.288701507 379.181140342 424.574208483 c 0
 318.05409992 493 318.05409992 493 231.456171943 493 c 0
 144.858243967 493 144.858243967 493 82.8188596578 424.574208483 c 0
 26.3319487662 361.441778663 26.3319487662 361.441778663 20.6531435885 276 c 1
 96.1495469911 276 l 1
 101.800795094 324.236649116 101.800795094 324.236649116 134.092355107 360.32721619 c 0
 174.062740621 405 174.062740621 405 231 405 c 0
 288.039101508 405 288.039101508 405 327.007011334 360.216054188 c 0
 365.99999756 316.555394215 365.99999756 316.555394215 366 256 c 2
 366 108 l 1
 249.290107471 108 l 1
 233.342585844 106.136003966 l 2
 163.771105927 98.0042725468 163.771105927 98.0042725468 110.821953896 39.5776220294 c 0
 49 -29.6260577044 49 -29.6260577044 49 -128 c 2
173.72585388 -473.084596813 m 1
 205.607073251 -488.90349163 205.607073251 -488.90349163 242.236656792 -492.032294043 c 0
 245.285257345 -491.961042229 245.285257345 -491.961042229 248.638484589 -492.045440657 c 0
 284.575458752 -489.429992888 284.575458752 -489.429992888 316.060385628 -473.812875215 c 1
 288.129165247 -520.592126943 288.129165247 -520.592126943 249.975387975 -530.375146756 c 2
 244.934595779 -531.667657576 l 1
 239.903239854 -530.343616543 l 2
 202.036066171 -520.378570837 202.036066171 -520.378570837 173.72585388 -473.084596813 c 1
EndSplineSet
Substitution2: "WithCartouche" zozeo_c
EndChar

StartChar: rising_falling
Encoding: 35 988876 35
Width: 0
VWidth: 1100
GlyphClass: 4
Flags: W
AnchorPoint: "tone" 256 456 mark 0
LayerCount: 2
Fore
SplineSet
413 706 m 0
 413 804.288701507 413 804.288701507 350.181140342 873.574208483 c 0
 289.05409992 942 289.05409992 942 202.456171943 942 c 0
 115.858243967 942 115.858243967 942 53.8188596578 873.574208483 c 0
 -2.64866739527 811.293847762 -2.64866739527 811.293847762 -8.34401888924 726 c 1
 67.8341823456 726 l 1
 72.8078883653 774.135127624 72.8078883653 774.135127624 105.181428316 809.426684145 c 0
 145.130376864 853.999999832 145.130376864 853.999999832 202 854 c 0
 258.937259379 854 258.937259379 854 297.952680547 810.326685331 c 0
 336.968101716 766.653370662 336.968101716 766.653370662 336.999974398 706.097290049 c 0
 337.028563543 702.992775181 337.028563543 702.992775181 337.028571429 699.911836735 c 0
 337.028571429 592.529320689 337.028571429 592.529320689 302.225932525 515.758793697 c 0
 295.482040245 500.882560725 295.482040245 500.882560725 288.059346775 488.522652047 c 1
 321.531090661 505.355660752 321.531090661 505.355660752 350.081883988 537.315503986 c 0
 413 607.635751293 413 607.635751293 413 706 c 0
EndSplineSet
EndChar

StartChar: bubue_c
Encoding: 36 -1 36
Width: 461
VWidth: 1100
GlyphClass: 2
Flags: W
AnchorPoint: "vv" 462 -161 basechar 0
AnchorPoint: "tone" 231 513 basechar 0
LayerCount: 2
Fore
SplineSet
379.081883988 88.3155039859 m 0
 442 157.710484881 442 157.710484881 442 256.499593194 c 0
 442 355.288701507 442 355.288701507 379.181140342 424.574208483 c 0
 318.05409992 493 318.05409992 493 231.456171943 493 c 0
 144.858243967 493 144.858243967 493 82.8188596578 424.574208483 c 0
 26.3319487662 361.441778663 26.3319487662 361.441778663 20.6531435885 276 c 1
 96.1495469911 276 l 1
 101.800795094 324.236649116 101.800795094 324.236649116 134.092355107 360.32721619 c 0
 174.062740621 405 174.062740621 405 231 405 c 0
 288.039101508 405 288.039101508 405 327.007011334 360.216054188 c 0
 365.99999756 316.555394215 365.99999756 316.555394215 366 256 c 0
 366 145.672177832 366 145.672177832 330.225932525 66.7587936968 c 0
 323.290426069 51.4598823959 323.290426069 51.4598823959 315.695938358 38.8442028657 c 1
 349.955871721 55.7117588392 349.955871721 55.7117588392 379.081883988 88.3155039859 c 0
20 1135 m 1
 20 1046 l 1
 640 1046 l 1
 640 1135 l 1
 20 1135 l 1
EndSplineSet
Substitution2: "TrimCartouche" bubue_c_end
EndChar

StartChar: cecoa_c
Encoding: 37 -1 37
Width: 461
VWidth: 1100
GlyphClass: 2
Flags: W
AnchorPoint: "tone" 231 513 basechar 0
AnchorPoint: "vv" 462 -161 basechar 0
LayerCount: 2
Fore
SplineSet
231 108 m 0
 174.130377413 108 174.130377413 108 134.181428369 152.573314982 c 0
 95.0000004303 195.284990253 95.0000004303 195.284990253 95 256 c 0
 95 316.635760482 95 316.635760482 134.092355107 360.32721619 c 0
 166.528523864 396.5794048 166.528523864 396.5794048 211 403.478554674 c 1
 211 492.077685581 l 1
 137.769588123 485.181629585 137.769588123 485.181629585 82.8188596578 424.574208483 c 0
 20 354.364894748 20 354.364894748 20 256 c 0
 20 157.711298493 20 157.711298493 82.8188596578 88.4257915172 c 0
 143.94590008 20 143.94590008 20 231 20 c 0
 318.053367094 20 318.053367094 20 379.081883988 88.3155039859 c 0
 409.125629608 121.451988126 409.125629608 121.451988126 424.731836446 160.673700042 c 1
 415.010911802 153.829659588 415.010911802 153.829659588 403.735186308 147.528518871 c 0
 332.156517001 108 332.156517001 108 231 108 c 0
20 1135 m 1
 20 1046 l 1
 640 1046 l 1
 640 1135 l 1
 20 1135 l 1
EndSplineSet
Substitution2: "TrimCartouche" cecoa_c_end
EndChar

StartChar: dudeo_c
Encoding: 38 -1 38
Width: 461
VWidth: 1100
GlyphClass: 2
Flags: W
AnchorPoint: "tone" 231 513 basechar 0
LayerCount: 2
Fore
SplineSet
202 333 m 128,-1,1
 181.024088936 333 181.024088936 333 167.012044468 348.665414097 c 128,-1,2
 153 364.330828195 153 364.330828195 153 385 c 128,-1,3
 153 405.634462833 153 405.634462833 167.087257042 420.348960315 c 0,4,5
 181 437 181 437 201.315721688 437 c 128,-1,6
 221.631443376 437 221.631443376 437 236.51884425 420.755833954 c 0,7,8
 251 406 251 406 251 384.537120017 c 128,-1,9
 251 363.074240035 251 363.074240035 236.552073536 348.278292431 c 0,10,0
 223 333 223 333 202 333 c 128,-1,1
379.081883988 88.3155039859 m 0,11,12
 442 158 442 158 442 256.5 c 128,-1,13
 442 355 442 355 379.181140342 424.574208483 c 0,14,15
 327 483 327 483 202 493 c 1,16,-1
 196 495 l 1,17,-1
 225.502018326 489.766479938 l 2,18,19
 225.502018326 489.766479938 225.502018326 489.766479938 202 493 c 0,20,21
 166 496 166 496 134.907644893 461.67278381 c 0,22,23
 107 430 107 430 107 385 c 2,24,-1
 107 384.616054162 l 2,25,26
 107 383 107 383 106.971428571 381.983673469 c 0,27,28
 107 339 107 339 134.907644893 307.32721619 c 0,29,30
 163 276 163 276 202 276 c 128,-1,31
 241 276 241 276 268.99695884 307.220713979 c 0,32,33
 285.947525843 326.938957898 285.947525843 326.938957898 292.673038683 352.159631049 c 2,34,-1
 302.211485395 387.928806218 l 1,35,-1
 326.907644893 360.32721619 l 2,36,37
 366 317 366 317 366 256 c 0,38,39
 366 198 366 198 326.919042556 152.682941105 c 0,40,41
 288 108 288 108 231.109333706 108.000043974 c 0,42,43
 229 108 229 108 226.095332018 107.974358974 c 0,44,45
 128 108 128 108 57.2648136924 147.528518871 c 0,46,47
 46 154 46 154 37.1190502829 160.285477934 c 1,48,49
 52 121 52 121 81.9181160115 88.3155039859 c 0,50,51
 144 20 144 20 231 20 c 128,-1,52
 318 20 318 20 379.081883988 88.3155039859 c 0,11,12
20 1135 m 1,53,-1
 20 1046 l 1,54,-1
 640 1046 l 1,55,-1
 640 1135 l 1,56,-1
 20 1135 l 1,53,-1
EndSplineSet
Substitution2: "TrimCartouche" dudeo_c_end
EndChar

StartChar: fofuaq_c
Encoding: 39 -1 39
Width: 461
VWidth: 1100
GlyphClass: 2
Flags: W
AnchorPoint: "tone" 231 513 basechar 0
AnchorPoint: "vv" 462 -161 basechar 0
LayerCount: 2
Fore
SplineSet
366 -256 m 2
 366 -367.327822168 366 -367.327822168 330.225932525 -446.241206303 c 0
 323.290426069 -461.540117604 323.290426069 -461.540117604 315.695938358 -474.155797134 c 1
 349.955871721 -457.288241161 349.955871721 -457.288241161 379.081883988 -424.684496014 c 0
 442 -354.364248707 442 -354.364248707 442 -256 c 2
 442 256 l 2
 442 355.288701507 442 355.288701507 379.181140342 424.574208483 c 0
 318.05409992 493 318.05409992 493 231.456171943 493 c 0
 144.858243967 493 144.858243967 493 82.8188596578 424.574208483 c 0
 26.3319487662 361.441778663 26.3319487662 361.441778663 20.6531435885 276 c 1
 96.1495469911 276 l 1
 101.800795094 324.236649116 101.800795094 324.236649116 134.092355107 360.32721619 c 0
 174.062740621 405 174.062740621 405 231 405 c 0
 288.039101508 405 288.039101508 405 327.007011334 360.216054188 c 0
 365.99999756 316.555394215 365.99999756 316.555394215 366 256 c 2
 366 -256 l 2
20 1135 m 1
 20 1046 l 1
 640 1046 l 1
 640 1135 l 1
 20 1135 l 1
EndSplineSet
Substitution2: "TrimCartouche" fofuaq_c_end
EndChar

StartChar: gugui_c
Encoding: 40 -1 40
Width: 605
VWidth: 1100
GlyphClass: 2
Flags: W
AnchorPoint: "tone" 231 513 basechar 0
AnchorPoint: "vv" 577 -161 basechar 0
LayerCount: 2
Fore
SplineSet
577 108 m 0
 521.129175925 108 521.129175925 108 481.181428256 152.573314365 c 0
 448.82678505 187.843111307 448.82678505 187.843111307 443.154257349 236 c 1
 364.845742651 236 l 1
 359.18228943 187.920150345 359.18228943 187.920150345 326.919042556 152.682941105 c 0
 287.970216176 108.000000689 287.970216176 108.000000689 231 108 c 0
 174.130377413 108 174.130377413 108 134.181428369 152.573314982 c 0
 95.0000004303 195.284990253 95.0000004303 195.284990253 95 256 c 0
 95 316.635760482 95 316.635760482 134.092355107 360.32721619 c 0
 166.528523864 396.5794048 166.528523864 396.5794048 211 403.478554674 c 1
 211 492.077685581 l 1
 137.769588123 485.181629585 137.769588123 485.181629585 82.8188596578 424.574208483 c 0
 20 354.364894748 20 354.364894748 20 256 c 0
 20 157.711298493 20 157.711298493 82.8188596578 88.4257915172 c 0
 143.94590008 20 143.94590008 20 231 20 c 0
 317.898401339 20 317.898401339 20 378.855237011 88.0621166745 c 1
 388.629660638 99.7914250268 l 1
 405.219240524 119.698920889 l 1
 420.285390376 98.6063110966 l 2
 422.521010255 95.4764432661 422.521010255 95.4764432661 428.918116012 88.3155039859 c 0
 489.946632906 20 489.946632906 20 577 20 c 0
 619.028014955 20 619.028014955 20 658.773119508 38.2324200699 c 0
 689.084077502 51.9445201148 689.084077502 51.9445201148 713.610467784 75.3711995343 c 1
 657.48905152 136.967875922 l 1
 620.518802669 108 620.518802669 108 577 108 c 0
20 1135 m 1
 20 1046 l 1
 784 1046 l 1
 784 1135 l 1
 20 1135 l 1
EndSplineSet
Substitution2: "TrimCartouche" gugui_c_end
EndChar

StartChar: hehaq_c
Encoding: 41 -1 41
Width: 461
VWidth: 1100
GlyphClass: 2
Flags: W
AnchorPoint: "tone" 231 513 basechar 0
LayerCount: 2
Fore
SplineSet
251 20 m 1
 366 20 l 1
 366 -256 l 2
 366 -367.327822168 366 -367.327822168 330.225932525 -446.241206303 c 0
 323.290426069 -461.540117604 323.290426069 -461.540117604 315.695938358 -474.155797134 c 1
 349.955871721 -457.288241161 349.955871721 -457.288241161 379.081883988 -424.684496014 c 0
 442 -354.364248707 442 -354.364248707 442 -256 c 2
 442 20 l 1
 693 20 l 2
 779.141756033 20 779.141756033 20 841.181140342 88.4257915172 c 0
 871.202625464 121.537723637 871.202625464 121.537723637 886.773110854 160.702766781 c 1
 877.034887552 153.843057802 877.034887552 153.843057802 865.735186308 147.528518871 c 0
 794.156517001 108 794.156517001 108 693 108 c 2
 442 108 l 1
 442 256 l 2
 442 355.288701507 442 355.288701507 379.181140342 424.574208483 c 0
 318.05409992 493 318.05409992 493 231.456171943 493 c 0
 144.858243967 493 144.858243967 493 82.8188596578 424.574208483 c 0
 26.3319487662 361.441778663 26.3319487662 361.441778663 20.6531435885 276 c 1
 96.1495469911 276 l 1
 101.800795094 324.236649116 101.800795094 324.236649116 134.092355107 360.32721619 c 0
 174.062740621 405 174.062740621 405 231 405 c 0
 288.039101508 405 288.039101508 405 327.007011334 360.216054188 c 0
 365.99999756 316.555394215 365.99999756 316.555394215 366 256 c 2
 366 108 l 1
 251 108 l 1
 251 20 l 1
20 1135 m 1
 20 1046 l 1
 640 1046 l 1
 640 1135 l 1
 20 1135 l 1
EndSplineSet
Substitution2: "TrimCartouche" hehaq_c_end
EndChar

StartChar: jujuo_c
Encoding: 42 -1 42
Width: 808
VWidth: 1100
GlyphClass: 2
Flags: W
CounterMasks: 1 38
AnchorPoint: "tone" 231 513 basechar 0
LayerCount: 2
Fore
SplineSet
577 405 m 0
 633.937259379 405 633.937259379 405 673.468629689 360.817880241 c 0
 713 316.635760482 713 316.635760482 713 256 c 0
 713 145.672177832 713 145.672177832 677.225932525 66.7587936968 c 0
 670.427491389 51.7622323665 670.427491389 51.7622323665 662.939309465 39.3230102115 c 1
 696.964846181 56.2019376442 696.964846181 56.2019376442 726.181140342 88.4257915172 c 0
 788 157.626007552 788 157.626007552 788 256 c 2
 788 256.190396392 l 2
 788.013607876 257.646439119 788.013607876 257.646439119 788.014492754 259.094727998 c 0
 788.014492754 356.375658029 788.014492754 356.375658029 726.078124393 424.687829015 c 0
 664.141756033 493 664.141756033 493 577.592555134 493 c 0
 491.043354235 493 491.043354235 493 429.096551224 424.880029208 c 1
 419.370339362 413.208574973 l 1
 402.780759476 393.301079111 l 1
 387.714609624 414.393688903 l 2
 385.478989745 417.523556734 385.478989745 417.523556734 379.081883988 424.684496014 c 0
 318.053367094 493 318.053367094 493 231.455805531 493 c 0
 144.858243967 493 144.858243967 493 82.8188596578 424.574208483 c 0
 26.3319487662 361.441778663 26.3319487662 361.441778663 20.6531435885 276 c 1
 96.1495469911 276 l 1
 101.800795094 324.236649116 101.800795094 324.236649116 134.092355107 360.32721619 c 0
 174.062740621 405 174.062740621 405 231 405 c 0
 288.039101508 405 288.039101508 405 327.007011334 360.216054188 c 0
 359.208151569 324.160261323 359.208151569 324.160261323 364.850453009 276 c 1
 443.149546991 276 l 1
 448.791845931 324.160262876 448.791845931 324.160262876 480.992987992 360.216053424 c 0
 520 405 520 405 577 405 c 0
20 1135 m 1
 20 1046 l 1
 986 1046 l 1
 986 1135 l 1
 20 1135 l 1
EndSplineSet
Substitution2: "TrimCartouche" jujuo_c_end
EndChar

StartChar: kikue_c
Encoding: 43 -1 43
Width: 461
VWidth: 1100
GlyphClass: 2
Flags: W
AnchorPoint: "tone" 231 513 basechar 0
LayerCount: 2
Fore
SplineSet
231 -314 m 0
 250.892101719 -314 250.892101719 -314 265.446050859 -297.262958488 c 0
 280 -280.525916976 280 -280.525916976 280 -256.5 c 0
 280 -232.474083024 280 -232.474083024 265.446050859 -215.737041512 c 0
 250.892101719 -199 250.892101719 -199 231 -199 c 0
 211.423238961 -199 211.423238961 -199 196.800866627 -215.445610292 c 0
 182 -231.726563582 182 -231.726563582 182 -256.126240279 c 0
 182 -280.525916976 182 -280.525916976 196.553949141 -297.262958488 c 0
 211.107898281 -314 211.107898281 -314 231 -314 c 0
231 108 m 0
 174.130377413 108 174.130377413 108 134.181428369 152.573314982 c 0
 95.0000004303 195.284990253 95.0000004303 195.284990253 95 256 c 0
 95 316.635760482 95 316.635760482 134.092355107 360.32721619 c 0
 166.528523864 396.5794048 166.528523864 396.5794048 211 403.478554674 c 1
 211 492.077685581 l 1
 137.769588123 485.181629585 137.769588123 485.181629585 82.8188596578 424.574208483 c 0
 20 354.364894748 20 354.364894748 20 256 c 0
 20 157.711298493 20 157.711298493 82.8188596578 88.4257915172 c 0
 143.94590008 20 143.94590008 20 231 20 c 0
 318.053367094 20 318.053367094 20 379.081883988 88.3155039859 c 0
 409.125629608 121.451988126 409.125629608 121.451988126 424.731836446 160.673700042 c 1
 415.010911802 153.829659588 415.010911802 153.829659588 403.735186308 147.528518871 c 0
 332.156517001 108 332.156517001 108 231 108 c 0
20 1135 m 1
 20 1046 l 1
 640 1046 l 1
 640 1135 l 1
 20 1135 l 1
EndSplineSet
Substitution2: "TrimCartouche" kikue_c_end
EndChar

StartChar: laoliq_c
Encoding: 44 -1 44
Width: 923
VWidth: 1100
GlyphClass: 2
Flags: W
AnchorPoint: "tone" 231 513 basechar 0
LayerCount: 2
Fore
SplineSet
528.000599326 -255.683475342 m 0
 528.85823002 -280.362880364 528.85823002 -280.362880364 543.306056506 -297.181440182 c 0
 557.753882993 -314 557.753882993 -314 577.322992356 -314 c 0
 596.545569991 -314 596.545569991 -314 611.724870347 -297.176782429 c 0
 626.904170703 -280.353564857 626.904170703 -280.353564857 626.9993537 -256.327811498 c 0
 626.143190291 -232.638755254 626.143190291 -232.638755254 611.517646005 -215.819377627 c 0
 596.892101719 -199 596.892101719 -199 577.5 -199 c 0
 558.107898281 -199 558.107898281 -199 544.096227849 -215.113420998 c 2
 543.466757367 -215.804265374 l 2
 528.090870992 -231.912336815 528.090870992 -231.912336815 528.000599326 -255.683475342 c 0
904 20 m 1
 904 256 l 2
 904 355.288701507 904 355.288701507 841.181140342 424.574208483 c 0
 780.05409992 493 780.05409992 493 693.456171943 493 c 0
 606.858243967 493 606.858243967 493 544.818859658 424.574208483 c 0
 488.331948766 361.441778663 488.331948766 361.441778663 482.653143588 276 c 1
 558.149546991 276 l 1
 563.800795094 324.236649116 563.800795094 324.236649116 596.092355107 360.32721619 c 0
 636.062740621 405 636.062740621 405 693 405 c 0
 750.528871105 405 750.528871105 405 790.104837966 360.103512843 c 0
 828 316.466659591 828 316.466659591 828 256 c 2
 828 108 l 1
 397.355253792 108 l 1
 413.417863951 137.534476745 l 2
 442 190.088726899 442 190.088726899 442 256 c 0
 442 355.288701507 442 355.288701507 379.181140342 424.574208483 c 0
 318.05409992 493 318.05409992 493 231.456171943 493 c 0
 144.858243967 493 144.858243967 493 82.8188596578 424.574208483 c 0
 26.3319487662 361.441778663 26.3319487662 361.441778663 20.6531435885 276 c 1
 96.1495469911 276 l 1
 101.800795094 324.236649116 101.800795094 324.236649116 134.092355107 360.32721619 c 0
 174.062740621 405 174.062740621 405 231 405 c 0
 288.039101508 405 288.039101508 405 327.007011334 360.216054188 c 0
 365.99999756 316.555394215 365.99999756 316.555394215 366 256 c 0
 366 145.672177832 366 145.672177832 330.225932525 66.7587936968 c 0
 317.737558309 38.659951709 317.737558309 38.659951709 302.825138866 20 c 1
 904 20 l 1
20 1135 m 1
 20 1046 l 1
 1102 1046 l 1
 1102 1135 l 1
 20 1135 l 1
EndSplineSet
Substitution2: "TrimCartouche" laoliq_c_end
EndChar

StartChar: mamei_c
Encoding: 45 -1 45
Width: 1385
VWidth: 1100
GlyphClass: 2
Flags: W
AnchorPoint: "tone" 231 513 basechar 0
LayerCount: 2
Fore
SplineSet
1366 -256 m 2
 1366 256 l 2
 1366 355.288701507 1366 355.288701507 1303.18114034 424.574208483 c 0
 1242.05409992 493 1242.05409992 493 1155 493 c 0
 1067.92184178 493 1067.92184178 493 1005.91316994 424.678173566 c 0
 950.258587406 361.483016627 950.258587406 361.483016627 944.645502026 276 c 1
 1020.14954699 276 l 1
 1025.80079509 324.236649116 1025.80079509 324.236649116 1058.09235511 360.32721619 c 0
 1098.06274062 405 1098.06274062 405 1155 405 c 0
 1212.5288711 405 1212.5288711 405 1252.10483797 360.103512843 c 0
 1290 316.466659591 1290 316.466659591 1290 256 c 2
 1290 108 l 1
 904 108 l 1
 904 256 l 2
 904 355.288701507 904 355.288701507 841.181140342 424.574208483 c 0
 780.05409992 493 780.05409992 493 693.456171943 493 c 0
 606.858243967 493 606.858243967 493 544.818859658 424.574208483 c 0
 488.331948766 361.441778663 488.331948766 361.441778663 482.653143588 276 c 1
 558.149546991 276 l 1
 563.800795094 324.236649116 563.800795094 324.236649116 596.092355107 360.32721619 c 0
 636.062740621 405 636.062740621 405 693 405 c 0
 750.528871105 405 750.528871105 405 790.104837966 360.103512843 c 0
 828 316.466659591 828 316.466659591 828 256 c 2
 828 108 l 1
 397.355253792 108 l 1
 413.417863951 137.534476745 l 2
 442 190.088726899 442 190.088726899 442 256 c 0
 442 355.288701507 442 355.288701507 379.181140342 424.574208483 c 0
 318.05409992 493 318.05409992 493 231.456171943 493 c 0
 144.858243967 493 144.858243967 493 82.8188596578 424.574208483 c 0
 26.3319487662 361.441778663 26.3319487662 361.441778663 20.6531435885 276 c 1
 96.1495469911 276 l 1
 101.800795094 324.236649116 101.800795094 324.236649116 134.092355107 360.32721619 c 0
 174.062740621 405 174.062740621 405 231 405 c 0
 288.039101508 405 288.039101508 405 327.007011334 360.216054188 c 0
 365.99999756 316.555394215 365.99999756 316.555394215 366 256 c 0
 366 145.672177832 366 145.672177832 330.225932525 66.7587936968 c 0
 317.737558309 38.659951709 317.737558309 38.659951709 302.825138866 20 c 1
 1290 20 l 1
 1290 -255.905490771 l 2
 1290.02856355 -259.008604666 1290.02856355 -259.008604666 1290.02857143 -262.088163265 c 0
 1290.02857143 -369.470679311 1290.02857143 -369.470679311 1255.22593253 -446.241206303 c 0
 1248.48204024 -461.117439275 1248.48204024 -461.117439275 1241.05934677 -473.477347953 c 1
 1274.53109066 -456.644339248 1274.53109066 -456.644339248 1303.08188399 -424.684496014 c 0
 1366 -354.364248707 1366 -354.364248707 1366 -256 c 2
20 1135 m 1
 20 1046 l 1
 1564 1046 l 1
 1564 1135 l 1
 20 1135 l 1
EndSplineSet
Substitution2: "TrimCartouche" mamei_c_end
EndChar

StartChar: nanaq_c
Encoding: 46 -1 46
Width: 461
VWidth: 1100
GlyphClass: 2
Flags: W
AnchorPoint: "tone" 231 513 basechar 0
LayerCount: 2
Fore
SplineSet
231 405 m 0
 288.039101508 405 288.039101508 405 327.007011334 360.216054188 c 0
 365.99999756 316.555394215 365.99999756 316.555394215 366 256 c 0
 366 195.366303697 366 195.366303697 326.919042555 152.682941104 c 0
 287.970216176 108.000000689 287.970216176 108.000000689 231 108 c 0
 174.130377413 108 174.130377413 108 134.181428369 152.573314982 c 0
 95.0000004303 195.284990253 95.0000004303 195.284990253 95 256 c 0
 95 316.635760482 95 316.635760482 134.531370311 360.817880241 c 0
 174.062740621 405 174.062740621 405 231 405 c 0
379.081883988 88.3155039859 m 0
 442 157.710484881 442 157.710484881 442 256.499593194 c 0
 442 355.288701507 442 355.288701507 379.181140342 424.574208483 c 0
 318.05409992 493 318.05409992 493 231.456171943 493 c 0
 144.858243967 493 144.858243967 493 82.8188596578 424.574208483 c 0
 20 354.364894748 20 354.364894748 20 256 c 0
 20 157.711298493 20 157.711298493 82.8188596578 88.4257915172 c 0
 143.94590008 20 143.94590008 20 231 20 c 0
 318.053367094 20 318.053367094 20 379.081883988 88.3155039859 c 0
424.916052418 674.803545195 m 1
 355.349241985 625.713410091 355.349241985 625.713410091 251 621.40650531 c 1
 251 533.902222105 l 1
 324.951485391 540.721774213 324.951485391 540.721774213 379.081883988 601.315503986 c 0
 409.31046159 635.100384835 409.31046159 635.100384835 424.916052418 674.803545195 c 1
20 1135 m 1
 20 1046 l 1
 640 1046 l 1
 640 1135 l 1
 20 1135 l 1
EndSplineSet
Substitution2: "TrimCartouche" nanaq_c_end
EndChar

StartChar: pipoq_c
Encoding: 47 -1 47
Width: 461
VWidth: 1100
GlyphClass: 2
Flags: W
AnchorPoint: "tone" 231 513 basechar 0
LayerCount: 2
Fore
SplineSet
231 405 m 0
 288.039101508 405 288.039101508 405 327.007011334 360.216054188 c 0
 365.99999756 316.555394215 365.99999756 316.555394215 366 256 c 0
 366 195.366303697 366 195.366303697 326.919042555 152.682941104 c 0
 287.970216176 108.000000689 287.970216176 108.000000689 231 108 c 0
 174.130377413 108 174.130377413 108 134.181428369 152.573314982 c 0
 95.0000004303 195.284990253 95.0000004303 195.284990253 95 256 c 0
 95 316.635760482 95 316.635760482 134.531370311 360.817880241 c 0
 174.062740621 405 174.062740621 405 231 405 c 0
442 -256 m 2
 442 256 l 2
 442 355.288701507 442 355.288701507 379.181140342 424.574208483 c 0
 318.05409992 493 318.05409992 493 231.456171943 493 c 0
 144.858243967 493 144.858243967 493 82.8188596578 424.574208483 c 0
 20 354.364894748 20 354.364894748 20 256 c 0
 20 157.711298493 20 157.711298493 82.8188596578 88.4257915172 c 0
 143.94590008 20 143.94590008 20 231 20 c 0
 288.190872627 20 288.190872627 20 335.304513107 49.8990410738 c 2
 366 69.3788692943 l 1
 366 -256 l 2
 366 -367.327822168 366 -367.327822168 330.225932525 -446.241206303 c 0
 323.290426069 -461.540117604 323.290426069 -461.540117604 315.695938358 -474.155797134 c 1
 349.955871721 -457.288241161 349.955871721 -457.288241161 379.081883988 -424.684496014 c 0
 442 -354.364248707 442 -354.364248707 442 -256 c 2
20 1135 m 1
 20 1046 l 1
 640 1046 l 1
 640 1135 l 1
 20 1135 l 1
EndSplineSet
Substitution2: "TrimCartouche" pipoq_c_end
EndChar

StartChar: aqaq_c
Encoding: 48 -1 48
Width: 461
VWidth: 1100
GlyphClass: 2
Flags: W
AnchorPoint: "tone" 231 513 basechar 0
LayerCount: 2
Fore
SplineSet
366 69.3788692943 m 1
 366 -256 l 2
 366 -367.327822168 366 -367.327822168 330.225932525 -446.241206303 c 0
 323.290426069 -461.540117604 323.290426069 -461.540117604 315.695938358 -474.155797134 c 1
 349.955871721 -457.288241161 349.955871721 -457.288241161 379.081883988 -424.684496014 c 0
 442 -354.364248707 442 -354.364248707 442 -256 c 2
 442 236 l 1
 364.845742651 236 l 1
 359.18228943 187.920150345 359.18228943 187.920150345 326.919042556 152.682941105 c 0
 287.970216176 108.000000689 287.970216176 108.000000689 231 108 c 0
 174.130377413 108 174.130377413 108 134.181428369 152.573314982 c 0
 95.0000004303 195.284990253 95.0000004303 195.284990253 95 256 c 0
 95 316.635760482 95 316.635760482 134.092355107 360.32721619 c 0
 166.528523864 396.5794048 166.528523864 396.5794048 211 403.478554674 c 1
 211 492.077685581 l 1
 137.769588123 485.181629585 137.769588123 485.181629585 82.8188596578 424.574208483 c 0
 20 354.364894748 20 354.364894748 20 256 c 0
 20 157.711298493 20 157.711298493 82.8188596578 88.4257915172 c 0
 143.94590008 20 143.94590008 20 231 20 c 0
 288.190872627 20 288.190872627 20 335.304513107 49.8990410738 c 2
 366 69.3788692943 l 1
20 1135 m 1
 20 1046 l 1
 640 1046 l 1
 640 1135 l 1
 20 1135 l 1
EndSplineSet
Substitution2: "TrimCartouche" aqaq_c_end
EndChar

StartChar: rairua_c
Encoding: 49 -1 49
Width: 923
VWidth: 1100
GlyphClass: 2
Flags: W
AnchorPoint: "tone" 231 513 basechar 0
LayerCount: 2
Fore
SplineSet
904 -256 m 2
 904 256 l 2
 904 355.288701507 904 355.288701507 841.181140342 424.574208483 c 0
 780.05409992 493 780.05409992 493 693.456171943 493 c 0
 606.858243967 493 606.858243967 493 544.818859658 424.574208483 c 0
 488.331948766 361.441778663 488.331948766 361.441778663 482.653143588 276 c 1
 558.149546991 276 l 1
 563.800795094 324.236649116 563.800795094 324.236649116 596.092355107 360.32721619 c 0
 636.062740621 405 636.062740621 405 693 405 c 0
 750.528871105 405 750.528871105 405 790.104837966 360.103512843 c 0
 828 316.466659591 828 316.466659591 828 256 c 2
 828 108 l 1
 397.355253792 108 l 1
 413.417863951 137.534476745 l 2
 442 190.088726899 442 190.088726899 442 256 c 0
 442 355.288701507 442 355.288701507 379.181140342 424.574208483 c 0
 318.05409992 493 318.05409992 493 231.456171943 493 c 0
 144.858243967 493 144.858243967 493 82.8188596578 424.574208483 c 0
 26.3319487662 361.441778663 26.3319487662 361.441778663 20.6531435885 276 c 1
 96.1495469911 276 l 1
 101.800795094 324.236649116 101.800795094 324.236649116 134.092355107 360.32721619 c 0
 174.062740621 405 174.062740621 405 231 405 c 0
 288.039101508 405 288.039101508 405 327.007011334 360.216054188 c 0
 365.99999756 316.555394215 365.99999756 316.555394215 366 256 c 0
 366 145.672177832 366 145.672177832 330.225932525 66.7587936968 c 0
 317.737558309 38.659951709 317.737558309 38.659951709 302.825138866 20 c 1
 828 20 l 1
 828 -255.905490771 l 2
 828.028563553 -259.008604666 828.028563553 -259.008604666 828.028571429 -262.088163265 c 0
 828.028571429 -369.470679311 828.028571429 -369.470679311 793.225932525 -446.241206303 c 0
 786.482040245 -461.117439275 786.482040245 -461.117439275 779.059346775 -473.477347953 c 1
 812.531090661 -456.644339248 812.531090661 -456.644339248 841.081883988 -424.684496014 c 0
 904 -354.364248707 904 -354.364248707 904 -256 c 2
20 1135 m 1
 20 1046 l 1
 1102 1046 l 1
 1102 1135 l 1
 20 1135 l 1
EndSplineSet
Substitution2: "TrimCartouche" rairua_c_end
EndChar

StartChar: saqseoq_c
Encoding: 50 -1 50
Width: 461
VWidth: 1100
GlyphClass: 2
Flags: W
AnchorPoint: "tone" 231 513 basechar 0
AnchorPoint: "vv" 462 -161 basechar 0
LayerCount: 2
Fore
SplineSet
231 405 m 0
 288.039101508 405 288.039101508 405 327.007011334 360.216054188 c 0
 365.99999756 316.555394215 365.99999756 316.555394215 366 256 c 0
 366 195.366303697 366 195.366303697 326.919042555 152.682941104 c 0
 287.970216176 108.000000689 287.970216176 108.000000689 231 108 c 0
 174.130377413 108 174.130377413 108 134.181428369 152.573314982 c 0
 95.0000004303 195.284990253 95.0000004303 195.284990253 95 256 c 0
 95 316.635760482 95 316.635760482 134.531370311 360.817880241 c 0
 174.062740621 405 174.062740621 405 231 405 c 0
379.081883988 88.3155039859 m 0
 442 157.710484881 442 157.710484881 442 256.499593194 c 0
 442 355.288701507 442 355.288701507 379.181140342 424.574208483 c 0
 318.05409992 493 318.05409992 493 231.456171943 493 c 0
 144.858243967 493 144.858243967 493 82.8188596578 424.574208483 c 0
 20 354.364894748 20 354.364894748 20 256 c 0
 20 157.711298493 20 157.711298493 82.8188596578 88.4257915172 c 0
 143.94590008 20 143.94590008 20 231 20 c 0
 318.053367094 20 318.053367094 20 379.081883988 88.3155039859 c 0
20 1135 m 1
 20 1046 l 1
 640 1046 l 1
 640 1135 l 1
 20 1135 l 1
EndSplineSet
Substitution2: "TrimCartouche" saqseoq_c_end
EndChar

StartChar: titieq_c
Encoding: 51 -1 51
Width: 808
VWidth: 1100
GlyphClass: 2
Flags: W
CounterMasks: 1 0e
AnchorPoint: "tone" 231 513 basechar 0
LayerCount: 2
Fore
SplineSet
231 405 m 0
 288.039101508 405 288.039101508 405 327.007011334 360.216054188 c 0
 365.99999756 316.555394215 365.99999756 316.555394215 366 256 c 0
 366 195.366303697 366 195.366303697 326.919042555 152.682941104 c 0
 287.970216176 108.000000689 287.970216176 108.000000689 231 108 c 0
 174.130377413 108 174.130377413 108 134.181428369 152.573314982 c 0
 95.0000004303 195.284990253 95.0000004303 195.284990253 95 256 c 0
 95 316.635760482 95 316.635760482 134.531370311 360.817880241 c 0
 174.062740621 405 174.062740621 405 231 405 c 0
442 256 m 2
 442 513 l 2
 442 573.635760482 442 573.635760482 480.983206423 617.274520705 c 0
 519.966412847 660.913280929 519.966412847 660.913280929 576.787870378 660.999838435 c 0
 578.122225294 661.025608707 578.122225294 661.025608707 579.452333991 661.025641026 c 0
 634.809054251 661.025641026 634.809054251 661.025641026 673.907644893 617.32721619 c 0
 713 573.635760482 713 573.635760482 713 513 c 2
 713 256 l 2
 713 145.672177832 713 145.672177832 677.225932525 66.7587936968 c 0
 670.427491389 51.7622323665 670.427491389 51.7622323665 662.939309465 39.3230102115 c 1
 696.964846181 56.2019376442 696.964846181 56.2019376442 726.181140342 88.4257915172 c 0
 788 157.626007552 788 157.626007552 788 256 c 2
 788 513.192190601 l 2
 788.013591034 514.632840174 788.013591034 514.632840174 788.014492754 516.065952531 c 0
 788.014492754 612.375658029 788.014492754 612.375658029 726.181140342 680.574208483 c 0
 664.100410392 749.958553722 664.100410392 749.958553722 577.108045725 749.999978923 c 0
 490.905761925 749.052402662 490.905761925 749.052402662 428.452880963 680.170552085 c 0
 366 611.288701507 366 611.288701507 366 513 c 2
 366 480 l 1
 366 443.23824492 l 1
 335.155709283 463.196315384 l 2
 289.095469422 493 289.095469422 493 231 493 c 0
 144.858243967 493 144.858243967 493 82.8188596578 424.574208483 c 0
 20 354.364894748 20 354.364894748 20 256 c 0
 20 157.711298493 20 157.711298493 82.8188596578 88.4257915172 c 0
 143.94590008 20 143.94590008 20 231 20 c 0
 318.053367094 20 318.053367094 20 379.081883988 88.3155039859 c 0
 442 157.710484881 442 157.710484881 442 256 c 2
20 1135 m 1
 20 1046 l 1
 986 1046 l 1
 986 1135 l 1
 20 1135 l 1
EndSplineSet
Substitution2: "TrimCartouche" titieq_c_end
EndChar

StartChar: veva_c
Encoding: 52 -1 52
Width: 461
VWidth: 1100
GlyphClass: 2
Flags: W
AnchorPoint: "tone" 693 513 basechar 0
LayerCount: 2
Fore
SplineSet
379.081883988 88.3155039859 m 0
 442 157.710484881 442 157.710484881 442 256.499593194 c 0
 442 355.288701507 442 355.288701507 379.181140342 424.574208483 c 0
 318.05409992 493 318.05409992 493 231 493 c 2
 95 493 l 1
 95 513 l 2
 95 623.327822168 95 623.327822168 130.774067475 702.241206303 c 0
 137.46299231 717.192920641 137.46299231 717.192920641 144.810431355 729.619201778 c 1
 111.406325169 712.574282318 111.406325169 712.574282318 82.9181160115 680.684496014 c 0
 20 611.289515119 20 611.289515119 20 513 c 2
 20 405 l 1
 231 405 l 2
 288.039101508 405 288.039101508 405 327.007011334 360.216054188 c 0
 365.99999756 316.555394215 365.99999756 316.555394215 366 256 c 0
 366 145.672177832 366 145.672177832 330.225932525 66.7587936968 c 0
 323.290426069 51.4598823959 323.290426069 51.4598823959 315.695938358 38.8442028657 c 1
 349.955871721 55.7117588392 349.955871721 55.7117588392 379.081883988 88.3155039859 c 0
20 1135 m 1
 20 1046 l 1
 640 1046 l 1
 640 1135 l 1
 20 1135 l 1
EndSplineSet
Substitution2: "TrimCartouche" veva_c_end
EndChar

StartChar: nhanhoq_c
Encoding: 53 -1 53
Width: 461
VWidth: 1100
GlyphClass: 2
Flags: W
AnchorPoint: "tone" 231 513 basechar 0
LayerCount: 2
Fore
SplineSet
231 3 m 1025
202 76 m 0
 181.024088936 76 181.024088936 76 167.012044468 91.6654140973 c 0
 153 107.330828195 153 107.330828195 153 128 c 0
 153 148.634462833 153 148.634462833 167.087257042 163.348960315 c 0
 181 180 181 180 201.315721688 180 c 0
 221.631443376 180 221.631443376 180 236.51884425 163.755833954 c 0
 251 149 251 149 251 128.165700889 c 0
 251 107.331401779 251 107.331401779 236.951309588 91.7217457658 c 0
 222.976424463 76 222.976424463 76 202 76 c 0
379.181140342 88.4257915172 m 0
 442 157.711298493 442 157.711298493 442 256.5 c 0
 442 355.288701507 442 355.288701507 379.181140342 424.574208483 c 0
 318.05409992 493 318.05409992 493 231.456171943 493 c 0
 144.858243967 493 144.858243967 493 82.8188596578 424.574208483 c 0
 26.3319487662 361.441778663 26.3319487662 361.441778663 20.6531435885 276 c 1
 96.1495469911 276 l 1
 101.800795094 324.236649116 101.800795094 324.236649116 134.092355107 360.32721619 c 0
 174.062740621 405 174.062740621 405 231 405 c 0
 288.039101508 405 288.039101508 405 327.007011334 360.216054188 c 0
 365.99999756 316.555394215 365.99999756 316.555394215 365.99999878 256.459816866 c 0
 366 196.364239518 366 196.364239518 326.907644893 152.67278381 c 2
 302.462309418 125.351526514 l 1
 292.717516489 160.676400884 l 2
 285.921989501 185.310186215 285.921989501 185.310186215 268.942003493 205.83242671 c 0
 241.010530868 235.999997347 241.010530868 235.999997347 202 236 c 0
 162.901004832 236 162.901004832 236 134.919777017 205.68291322 c 0
 107.000002753 173.390941153 107.000002753 173.390941153 107 128 c 2
 107 127.616054162 l 2
 106.975013061 126.291746392 106.975013061 126.291746392 106.971428571 124.983673469 c 0
 106.971428571 81.6153578759 106.971428571 81.6153578759 134.818571822 50.4268719638 c 0
 162.836221705 20.0000004476 162.836221705 20.0000004476 202 20 c 0
 214.865171785 20 214.865171785 20 226.795726145 22.5565473629 c 2
 251 27.7431774747 l 1
 251 20.9223144191 l 1
 324.230411877 27.8183704155 324.230411877 27.8183704155 379.181140342 88.4257915172 c 0
20 1135 m 1
 20 1046 l 1
 640 1046 l 1
 640 1135 l 1
 20 1135 l 1
EndSplineSet
Substitution2: "TrimCartouche" nhanhoq_c_end
EndChar

StartChar: shoshia_c
Encoding: 54 -1 54
Width: 461
VWidth: 1100
GlyphClass: 2
Flags: W
AnchorPoint: "tone" 231 513 basechar 0
LayerCount: 2
Fore
SplineSet
425.302950884 547.047886998 m 1
 348.765114692 493 348.765114692 493 231 493 c 0
 144.858243967 493 144.858243967 493 82.8188596578 424.574208483 c 0
 20 354.364894748 20 354.364894748 20 256 c 0
 20 157.711298493 20 157.711298493 82.8188596578 88.4257915172 c 0
 143.94590008 20 143.94590008 20 231 20 c 0
 288.190872627 20 288.190872627 20 335.304513107 49.8990410738 c 2
 366 69.3788692943 l 1
 366 -256 l 2
 366 -367.327822168 366 -367.327822168 330.225932525 -446.241206303 c 0
 323.290426069 -461.540117604 323.290426069 -461.540117604 315.695938358 -474.155797134 c 1
 349.955871721 -457.288241161 349.955871721 -457.288241161 379.081883988 -424.684496014 c 0
 442 -354.364248707 442 -354.364248707 442 -256 c 2
 442 236 l 1
 364.845742651 236 l 1
 359.18228943 187.920150345 359.18228943 187.920150345 326.919042556 152.682941105 c 0
 287.970216176 108.000000689 287.970216176 108.000000689 231 108 c 0
 174.130377413 108 174.130377413 108 134.181428369 152.573314982 c 0
 95.0000004303 195.284990253 95.0000004303 195.284990253 95 256 c 0
 95 316.635760482 95 316.635760482 134.531370311 360.817880241 c 0
 174.062740621 405 174.062740621 405 231 405 c 0
 317.141756033 405 317.141756033 405 379.181140342 473.425791517 c 0
 409.714264137 507.102030997 409.714264137 507.102030997 425.302950884 547.047886998 c 1
20 1135 m 1
 20 1046 l 1
 640 1046 l 1
 640 1135 l 1
 20 1135 l 1
EndSplineSet
Substitution2: "TrimCartouche" shoshia_c_end
EndChar

StartChar: chichao_c
Encoding: 55 -1 55
Width: 461
VWidth: 1100
GlyphClass: 2
Flags: W
AnchorPoint: "tone" 231 513 basechar 0
LayerCount: 2
Fore
SplineSet
425.302950884 547.047886998 m 1
 348.765114692 493 348.765114692 493 231 493 c 0
 144.858243967 493 144.858243967 493 82.8188596578 424.574208483 c 0
 20 354.364894748 20 354.364894748 20 256 c 0
 20 157.711298493 20 157.711298493 82.8188596578 88.4257915172 c 0
 143.94590008 20 143.94590008 20 231 20 c 0
 318.053367094 20 318.053367094 20 379.081883988 88.3155039859 c 0
 409.125629608 121.451988126 409.125629608 121.451988126 424.731836446 160.673700042 c 1
 415.010911802 153.829659588 415.010911802 153.829659588 403.735186308 147.528518871 c 0
 332.156517001 108 332.156517001 108 231 108 c 0
 174.130377413 108 174.130377413 108 134.181428369 152.573314982 c 0
 95.0000004303 195.284990253 95.0000004303 195.284990253 95 256 c 0
 95 316.635760482 95 316.635760482 134.531370311 360.817880241 c 0
 174.062740621 405 174.062740621 405 231 405 c 0
 317.141756033 405 317.141756033 405 379.181140342 473.425791517 c 0
 409.714264137 507.102030997 409.714264137 507.102030997 425.302950884 547.047886998 c 1
20 1135 m 1
 20 1046 l 1
 640 1046 l 1
 640 1135 l 1
 20 1135 l 1
EndSplineSet
Substitution2: "TrimCartouche" chichao_c_end
EndChar

StartChar: zozeo_c
Encoding: 56 -1 56
Width: 461
VWidth: 1100
GlyphClass: 2
Flags: W
AnchorPoint: "tone" 231 513 basechar 0
LayerCount: 2
Fore
SplineSet
20 1135 m 1
 20 1046 l 1
 640 1046 l 1
 640 1135 l 1
 20 1135 l 1
49 -128 m 2
 49 -256.190396392 l 2
 48.9863921241 -257.646439119 48.9863921241 -257.646439119 48.9855072464 -259.094727998 c 0
 48.9855072464 -356.375658029 48.9855072464 -356.375658029 110.818859658 -424.574208483 c 0
 139.542996223 -456.123669956 139.542996223 -456.123669956 173.72585388 -473.084596813 c 1
 166.410653737 -460.864099064 166.410653737 -460.864099064 159.733549568 -446.151236018 c 0
 124 -366.276242866 124 -366.276242866 124 -256 c 2
 124 -128 l 2
 124 -68.3642395179 124 -68.3642395179 163.531370311 -24.1821197589 c 0
 203.062740621 20 203.062740621 20 260 20 c 2
 366 20 l 1
 366 -256 l 2
 366 -367.326503515 366 -367.326503515 330.286211304 -446.106919755 c 0
 323.539808524 -461.286326012 323.539808524 -461.286326012 316.060385628 -473.812875215 c 1
 350.20266291 -456.877661613 350.20266291 -456.877661613 379.109666865 -424.653460434 c 0
 442 -354.364264577 442 -354.364264577 442 -256 c 2
 442 20 l 1
 693 20 l 2
 779.141756033 20 779.141756033 20 841.181140342 88.4257915172 c 0
 871.202625464 121.537723637 871.202625464 121.537723637 886.773110854 160.702766781 c 1
 877.034887552 153.843057802 877.034887552 153.843057802 865.735186308 147.528518871 c 0
 794.156517001 108 794.156517001 108 693 108 c 2
 442 108 l 1
 442 256 l 2
 442 355.288701507 442 355.288701507 379.181140342 424.574208483 c 0
 318.05409992 493 318.05409992 493 231.456171943 493 c 0
 144.858243967 493 144.858243967 493 82.8188596578 424.574208483 c 0
 26.3319487662 361.441778663 26.3319487662 361.441778663 20.6531435885 276 c 1
 96.1495469911 276 l 1
 101.800795094 324.236649116 101.800795094 324.236649116 134.092355107 360.32721619 c 0
 174.062740621 405 174.062740621 405 231 405 c 0
 288.039101508 405 288.039101508 405 327.007011334 360.216054188 c 0
 365.99999756 316.555394215 365.99999756 316.555394215 366 256 c 2
 366 108 l 1
 249.290107471 108 l 1
 233.342585844 106.136003966 l 2
 163.771105927 98.0042725468 163.771105927 98.0042725468 110.821953896 39.5776220294 c 0
 49 -29.6260577044 49 -29.6260577044 49 -128 c 2
173.72585388 -473.084596813 m 1
 205.607073251 -488.90349163 205.607073251 -488.90349163 242.236656792 -492.032294043 c 0
 245.285257345 -491.961042229 245.285257345 -491.961042229 248.638484589 -492.045440657 c 0
 284.575458752 -489.429992888 284.575458752 -489.429992888 316.060385628 -473.812875215 c 1
 288.129165247 -520.592126943 288.129165247 -520.592126943 249.975387975 -530.375146756 c 2
 244.934595779 -531.667657576 l 1
 239.903239854 -530.343616543 l 2
 202.036066171 -520.378570837 202.036066171 -520.378570837 173.72585388 -473.084596813 c 1
EndSplineSet
Substitution2: "TrimCartouche" zozeo_c_end
EndChar

StartChar: space_c
Encoding: 57 -1 57
Width: 461
VWidth: 1100
GlyphClass: 1
Flags: W
LayerCount: 2
Fore
SplineSet
20 1135 m 1
 20 1046 l 1
 640 1046 l 1
 640 1135 l 1
 20 1135 l 1
EndSplineSet
Substitution2: "TrimCartouche" space_c_end
EndChar

StartChar: prefix_c
Encoding: 58 -1 58
Width: 288
VWidth: 1100
GlyphClass: 2
Flags: W
LayerCount: 2
Fore
SplineSet
178.199133373 87.4456102925 m 0
 193 103.726563582 193 103.726563582 193 128 c 0
 193 152.418407903 193 152.418407903 178.049722185 169.718216582 c 0
 164.067957919 184.999999412 164.067957919 184.999999412 144 185 c 2
 143.299709564 185.01205623 l 2
 142.435404156 185.041859864 142.435404156 185.041859864 141.598958333 185.041666667 c 0
 123.274564948 185.041666667 123.274564948 185.041666667 109.137282474 168.783791822 c 0
 95 152.525916976 95 152.525916976 95 128.5 c 0
 95 104.474083024 95 104.474083024 109.553949141 87.7370415118 c 0
 124.107898281 71 124.107898281 71 143.84232966 71 c 0
 163.576761039 71 163.576761039 71 178.199133373 87.4456102925 c 0
178.049722027 343.28178324 m 0
 193 361 193 361 193 384.762958488 c 0
 193 408.525916976 193 408.525916976 178.446050859 425.262958488 c 0
 163.892101719 442 163.892101719 442 144 442 c 0
 124.423238961 442 124.423238961 442 109.800866627 425.554389708 c 0
 95 409.273436418 95 409.273436418 95 385 c 0
 95 360.581592096 95 360.581592096 109.950277815 343.281783418 c 0
 123.932042081 328.000000588 123.932042081 328.000000588 144 328 c 0
 164.067958472 328 164.067958472 328 178.049722027 343.28178324 c 0
20 1135 m 1
 20 1046 l 1
 467 1046 l 1
 467 1135 l 1
 20 1135 l 1
EndSplineSet
Substitution2: "TrimCartouche" prefix_c_end
EndChar

StartChar: oaomo_c
Encoding: 59 -1 59
Width: 288
VWidth: 1100
GlyphClass: 2
Flags: W
LayerCount: 2
Fore
SplineSet
178.199133373 215.445610292 m 0
 193 231.726563582 193 231.726563582 193 256.126240279 c 0
 193 280.525916976 193 280.525916976 178.446050859 297.262958488 c 0
 163.892101719 314 163.892101719 314 144 314 c 0
 124.107898281 314 124.107898281 314 109.553949141 297.262958488 c 0
 95 280.525916976 95 280.525916976 95 256.5 c 0
 95 232.474083024 95 232.474083024 109.553949141 215.737041512 c 0
 124.107898281 199 124.107898281 199 143.84232966 199 c 0
 163.576761039 199 163.576761039 199 178.199133373 215.445610292 c 0
20 1135 m 1
 20 1046 l 1
 467 1046 l 1
 467 1135 l 1
 20 1135 l 1
EndSplineSet
Substitution2: "TrimCartouche" oaomo_c_end
EndChar

StartChar: quote_c
Encoding: 60 -1 60
Width: 461
VWidth: 1100
GlyphClass: 2
Flags: W
LayerCount: 2
Fore
SplineSet
141.985983931 128 m 1
 230.935709623 29.8485785477 l 1
 319.118627334 128 l 1
 230.935709623 226.151421452 l 1
 141.985983931 128 l 1
141.938754936 384.947885246 m 1
 230.935484109 285.977384701 l 1
 319.165223767 384.948136144 l 1
 230.935709623 483.151421452 l 1
 141.938754936 384.947885246 l 1
20 1135 m 1
 20 1046 l 1
 640 1046 l 1
 640 1135 l 1
 20 1135 l 1
EndSplineSet
Substitution2: "TrimCartouche" quote_c_end
EndChar

StartChar: dotted_circle
Encoding: 61 9676 61
Width: 461
VWidth: 1100
GlyphClass: 2
Flags: W
AnchorPoint: "vv" 462 -161 basechar 0
AnchorPoint: "tone" 231 513 basechar 0
LayerCount: 2
Fore
SplineSet
243.320651196 472.136566827 m 2
 239.003485333 473 239.003485333 473 228.885354016 473 c 0
 222.436660493 473 222.436660493 473 194.923486812 469.069546617 c 1
 197.574625926 452.278998895 l 1
 205.466485622 453.688259555 l 2
 214.678898783 455.333333333 214.678898783 455.333333333 225.804560651 455.333333333 c 0
 236.93022252 455.333333333 236.93022252 455.333333333 243.19051348 454.965080924 c 2
 243.442833095 454.948649517 l 1
 251.795128739 454.352056971 l 1
 253.294833582 471.44869218 l 1
 244.606382356 472.047895713 l 1
 243.320651196 472.136566827 l 2
401.776961282 362.678292972 m 1
 397.537258723 370.249190399 l 2
 387.53216433 388.440271112 387.53216433 388.440271112 373.999781159 403.77697204 c 2
 367.913144169 410.824104313 l 1
 354.828907879 399.565575413 l 1
 360.382920709 392.77733751 l 2
 374.337276974 376.260567286 374.337276974 376.260567286 386.678292972 354.223038718 c 1
 401.776961282 362.678292972 l 1
98.1566587401 389.97354926 m 1
 85.0693969767 399.861702592 l 1
 80.093425206 393.129505491 l 2
 66.0282231817 375.108238681 66.0282231817 375.108238681 58.1183636835 358.524634636 c 2
 54.3497378195 350.359278597 l 1
 69.9848715624 342.694997351 l 1
 73.982658223 350.690570672 l 2
 82.3933905082 368.646774593 82.3933905082 368.646774593 98.1566587401 389.97354926 c 1
427 254 m 2
 427 262 l 1
 410 262 l 1
 410 254 l 2
 410 234.406915367 410 234.406915367 406.753227201 215.835929915 c 2
 405.533160862 207.29546554 l 1
 422.127922118 204.332115315 l 1
 423.201713423 211.848654455 l 2
 427 235.256120235 427 235.256120235 427 254 c 2
64.0750494821 179.517113393 m 2
 56.508354953 201.004854837 56.508354953 201.004854837 53.069546617 225.076513188 c 1
 36.2789988946 222.425374074 l 1
 42.3078147504 188.664005282 42.3078147504 188.664005282 50.883263175 165.510294535 c 1
 66.8375071204 171.229740478 l 1
 64.0750494821 179.517113393 l 2
361.563252273 90.2375331962 m 1
 349.778193742 102.929134691 l 1
 343.481251406 97.2319514444 343.481251406 97.2319514444 343.410169472 97.1669912393 c 0
 328.875874616 83.7507190651 328.875874616 83.7507190651 312.901393148 74.6224439405 c 2
 305.487880963 70.4706240815 l 1
 314.11655456 55.593600638 l 1
 321.731513377 60.1625759279 l 2
 340.61919872 71.0180404023 340.61919872 71.0180404023 355.589830528 84.8330087607 c 2
 361.563252273 90.2375331962 l 1
182.335782431 59.8087768835 m 2
 164.888843842 64.5430257928 164.888843842 64.5430257928 147.731513377 74.8374240721 c 2
 139.963654096 79.4981396407 l 1
 131.336737504 64.9216253993 l 1
 139.268486623 60.1625759279 l 2
 158.685800065 48.5121878625 158.685800065 48.5121878625 185.138837556 40.6742508283 c 1
 190.628506732 57.1432583581 l 1
 182.335782431 59.8087768835 l 2
EndSplineSet
EndChar

StartChar: bubue_c_end
Encoding: 62 -1 62
Width: 461
VWidth: 1100
GlyphClass: 2
Flags: W
AnchorPoint: "vv" 462 -161 basechar 0
AnchorPoint: "tone" 231 513 basechar 0
LayerCount: 2
Fore
SplineSet
379.081883988 88.3155039859 m 0
 442 157.710484881 442 157.710484881 442 256.499593194 c 0
 442 355.288701507 442 355.288701507 379.181140342 424.574208483 c 0
 318.05409992 493 318.05409992 493 231.456171943 493 c 0
 144.858243967 493 144.858243967 493 82.8188596578 424.574208483 c 0
 26.3319487662 361.441778663 26.3319487662 361.441778663 20.6531435885 276 c 1
 96.1495469911 276 l 1
 101.800795094 324.236649116 101.800795094 324.236649116 134.092355107 360.32721619 c 0
 174.062740621 405 174.062740621 405 231 405 c 0
 288.039101508 405 288.039101508 405 327.007011334 360.216054188 c 0
 365.99999756 316.555394215 365.99999756 316.555394215 366 256 c 0
 366 145.672177832 366 145.672177832 330.225932525 66.7587936968 c 0
 323.290426069 51.4598823959 323.290426069 51.4598823959 315.695938358 38.8442028657 c 1
 349.955871721 55.7117588392 349.955871721 55.7117588392 379.081883988 88.3155039859 c 0
20 1135 m 1
 20 1046 l 1
 442 1046 l 1
 442 1135 l 1
 20 1135 l 1
EndSplineSet
EndChar

StartChar: cecoa_c_end
Encoding: 63 -1 63
Width: 461
VWidth: 1100
GlyphClass: 2
Flags: W
AnchorPoint: "tone" 231 513 basechar 0
AnchorPoint: "vv" 462 -161 basechar 0
LayerCount: 2
Fore
SplineSet
231 108 m 0
 174.130377413 108 174.130377413 108 134.181428369 152.573314982 c 0
 95.0000004303 195.284990253 95.0000004303 195.284990253 95 256 c 0
 95 316.635760482 95 316.635760482 134.092355107 360.32721619 c 0
 166.528523864 396.5794048 166.528523864 396.5794048 211 403.478554674 c 1
 211 492.077685581 l 1
 137.769588123 485.181629585 137.769588123 485.181629585 82.8188596578 424.574208483 c 0
 20 354.364894748 20 354.364894748 20 256 c 0
 20 157.711298493 20 157.711298493 82.8188596578 88.4257915172 c 0
 143.94590008 20 143.94590008 20 231 20 c 0
 318.053367094 20 318.053367094 20 379.081883988 88.3155039859 c 0
 409.125629608 121.451988126 409.125629608 121.451988126 424.731836446 160.673700042 c 1
 415.010911802 153.829659588 415.010911802 153.829659588 403.735186308 147.528518871 c 0
 332.156517001 108 332.156517001 108 231 108 c 0
20 1135 m 1
 20 1046 l 1
 442 1046 l 1
 442 1135 l 1
 20 1135 l 1
EndSplineSet
EndChar

StartChar: dudeo_c_end
Encoding: 64 -1 64
Width: 461
VWidth: 1100
GlyphClass: 2
Flags: W
AnchorPoint: "tone" 231 513 basechar 0
LayerCount: 2
Fore
SplineSet
202 333 m 128,-1,1
 181.024088936 333 181.024088936 333 167.012044468 348.665414097 c 128,-1,2
 153 364.330828195 153 364.330828195 153 385 c 128,-1,3
 153 405.634462833 153 405.634462833 167.087257042 420.348960315 c 0,4,5
 181 437 181 437 201.315721688 437 c 128,-1,6
 221.631443376 437 221.631443376 437 236.51884425 420.755833954 c 0,7,8
 251 406 251 406 251 384.537120017 c 128,-1,9
 251 363.074240035 251 363.074240035 236.552073536 348.278292431 c 0,10,0
 223 333 223 333 202 333 c 128,-1,1
379.081883988 88.3155039859 m 0,11,12
 442 158 442 158 442 256.5 c 128,-1,13
 442 355 442 355 379.181140342 424.574208483 c 0,14,15
 326.235483242 483.213480278 326.235483242 483.213480278 202 493 c 5,16,-1
 202 493 l 1,17,-1
 225.502018326 489.766479938 l 2,18,19
 214 491 214 491 202 493 c 0,20,21
 166 496 166 496 134.907644893 461.67278381 c 0,22,23
 107 430 107 430 107 385 c 2,24,-1
 107 384.616054162 l 2,25,26
 107 383 107 383 106.971428571 381.983673469 c 0,27,28
 107 339 107 339 134.907644893 307.32721619 c 0,29,30
 163 276 163 276 202 276 c 128,-1,31
 241 276 241 276 268.99695884 307.220713979 c 0,32,33
 285.947525843 326.938957898 285.947525843 326.938957898 292.673038683 352.159631049 c 2,34,-1
 302.211485395 387.928806218 l 1,35,-1
 326.907644893 360.32721619 l 2,36,37
 366 317 366 317 366 256 c 0,38,39
 366 198 366 198 326.919042556 152.682941105 c 0,40,41
 288 108 288 108 231.109333706 108.000043974 c 0,42,43
 229 108 229 108 226.095332018 107.974358974 c 0,44,45
 128 108 128 108 57.2648136924 147.528518871 c 0,46,47
 46 154 46 154 37.1190502829 160.285477934 c 1,48,49
 52 121 52 121 81.9181160115 88.3155039859 c 0,50,51
 144 20 144 20 231 20 c 128,-1,52
 318 20 318 20 379.081883988 88.3155039859 c 0,11,12
20 1135 m 1,53,-1
 20 1046 l 1,54,-1
 442 1046 l 1,55,-1
 442 1135 l 1,56,-1
 20 1135 l 1,53,-1
EndSplineSet
EndChar

StartChar: fofuaq_c_end
Encoding: 65 -1 65
Width: 461
VWidth: 1100
GlyphClass: 2
Flags: W
AnchorPoint: "tone" 231 513 basechar 0
AnchorPoint: "vv" 462 -161 basechar 0
LayerCount: 2
Fore
SplineSet
366 -256 m 2
 366 -367.327822168 366 -367.327822168 330.225932525 -446.241206303 c 0
 323.290426069 -461.540117604 323.290426069 -461.540117604 315.695938358 -474.155797134 c 1
 349.955871721 -457.288241161 349.955871721 -457.288241161 379.081883988 -424.684496014 c 0
 442 -354.364248707 442 -354.364248707 442 -256 c 2
 442 256 l 2
 442 355.288701507 442 355.288701507 379.181140342 424.574208483 c 0
 318.05409992 493 318.05409992 493 231.456171943 493 c 0
 144.858243967 493 144.858243967 493 82.8188596578 424.574208483 c 0
 26.3319487662 361.441778663 26.3319487662 361.441778663 20.6531435885 276 c 1
 96.1495469911 276 l 1
 101.800795094 324.236649116 101.800795094 324.236649116 134.092355107 360.32721619 c 0
 174.062740621 405 174.062740621 405 231 405 c 0
 288.039101508 405 288.039101508 405 327.007011334 360.216054188 c 0
 365.99999756 316.555394215 365.99999756 316.555394215 366 256 c 2
 366 -256 l 2
20 1135 m 1
 20 1046 l 1
 442 1046 l 1
 442 1135 l 1
 20 1135 l 1
EndSplineSet
EndChar

StartChar: gugui_c_end
Encoding: 66 -1 66
Width: 605
VWidth: 1100
GlyphClass: 2
Flags: W
AnchorPoint: "tone" 231 513 basechar 0
AnchorPoint: "vv" 577 -161 basechar 0
LayerCount: 2
Fore
SplineSet
577 108 m 0
 521.129175925 108 521.129175925 108 481.181428256 152.573314365 c 0
 448.82678505 187.843111307 448.82678505 187.843111307 443.154257349 236 c 1
 364.845742651 236 l 1
 359.18228943 187.920150345 359.18228943 187.920150345 326.919042556 152.682941105 c 0
 287.970216176 108.000000689 287.970216176 108.000000689 231 108 c 0
 174.130377413 108 174.130377413 108 134.181428369 152.573314982 c 0
 95.0000004303 195.284990253 95.0000004303 195.284990253 95 256 c 0
 95 316.635760482 95 316.635760482 134.092355107 360.32721619 c 0
 166.528523864 396.5794048 166.528523864 396.5794048 211 403.478554674 c 1
 211 492.077685581 l 1
 137.769588123 485.181629585 137.769588123 485.181629585 82.8188596578 424.574208483 c 0
 20 354.364894748 20 354.364894748 20 256 c 0
 20 157.711298493 20 157.711298493 82.8188596578 88.4257915172 c 0
 143.94590008 20 143.94590008 20 231 20 c 0
 317.898401339 20 317.898401339 20 378.855237011 88.0621166745 c 1
 388.629660638 99.7914250268 l 1
 405.219240524 119.698920889 l 1
 420.285390376 98.6063110966 l 2
 422.521010255 95.4764432661 422.521010255 95.4764432661 428.918116012 88.3155039859 c 0
 489.946632906 20 489.946632906 20 577 20 c 0
 619.028014955 20 619.028014955 20 658.773119508 38.2324200699 c 0
 689.084077502 51.9445201148 689.084077502 51.9445201148 713.610467784 75.3711995343 c 1
 657.48905152 136.967875922 l 1
 620.518802669 108 620.518802669 108 577 108 c 0
20 1135 m 1
 20 1046 l 1
 586 1046 l 1
 586 1135 l 1
 20 1135 l 1
EndSplineSet
EndChar

StartChar: hehaq_c_end
Encoding: 67 -1 67
Width: 461
VWidth: 1100
GlyphClass: 2
Flags: W
AnchorPoint: "tone" 231 513 basechar 0
LayerCount: 2
Fore
SplineSet
251 20 m 1
 366 20 l 1
 366 -256 l 2
 366 -367.327822168 366 -367.327822168 330.225932525 -446.241206303 c 0
 323.290426069 -461.540117604 323.290426069 -461.540117604 315.695938358 -474.155797134 c 1
 349.955871721 -457.288241161 349.955871721 -457.288241161 379.081883988 -424.684496014 c 0
 442 -354.364248707 442 -354.364248707 442 -256 c 2
 442 20 l 1
 693 20 l 2
 779.141756033 20 779.141756033 20 841.181140342 88.4257915172 c 0
 871.202625464 121.537723637 871.202625464 121.537723637 886.773110854 160.702766781 c 1
 877.034887552 153.843057802 877.034887552 153.843057802 865.735186308 147.528518871 c 0
 794.156517001 108 794.156517001 108 693 108 c 2
 442 108 l 1
 442 256 l 2
 442 355.288701507 442 355.288701507 379.181140342 424.574208483 c 0
 318.05409992 493 318.05409992 493 231.456171943 493 c 0
 144.858243967 493 144.858243967 493 82.8188596578 424.574208483 c 0
 26.3319487662 361.441778663 26.3319487662 361.441778663 20.6531435885 276 c 1
 96.1495469911 276 l 1
 101.800795094 324.236649116 101.800795094 324.236649116 134.092355107 360.32721619 c 0
 174.062740621 405 174.062740621 405 231 405 c 0
 288.039101508 405 288.039101508 405 327.007011334 360.216054188 c 0
 365.99999756 316.555394215 365.99999756 316.555394215 366 256 c 2
 366 108 l 1
 251 108 l 1
 251 20 l 1
20 1135 m 1
 20 1046 l 1
 442 1046 l 1
 442 1135 l 1
 20 1135 l 1
EndSplineSet
EndChar

StartChar: jujuo_c_end
Encoding: 68 -1 68
Width: 808
VWidth: 1100
GlyphClass: 2
Flags: W
CounterMasks: 1 38
AnchorPoint: "tone" 231 513 basechar 0
LayerCount: 2
Fore
SplineSet
577 405 m 0
 633.937259379 405 633.937259379 405 673.468629689 360.817880241 c 0
 713 316.635760482 713 316.635760482 713 256 c 0
 713 145.672177832 713 145.672177832 677.225932525 66.7587936968 c 0
 670.427491389 51.7622323665 670.427491389 51.7622323665 662.939309465 39.3230102115 c 1
 696.964846181 56.2019376442 696.964846181 56.2019376442 726.181140342 88.4257915172 c 0
 788 157.626007552 788 157.626007552 788 256 c 2
 788 256.190396392 l 2
 788.013607876 257.646439119 788.013607876 257.646439119 788.014492754 259.094727998 c 0
 788.014492754 356.375658029 788.014492754 356.375658029 726.078124393 424.687829015 c 0
 664.141756033 493 664.141756033 493 577.592555134 493 c 0
 491.043354235 493 491.043354235 493 429.096551224 424.880029208 c 1
 419.370339362 413.208574973 l 1
 402.780759476 393.301079111 l 1
 387.714609624 414.393688903 l 2
 385.478989745 417.523556734 385.478989745 417.523556734 379.081883988 424.684496014 c 0
 318.053367094 493 318.053367094 493 231.455805531 493 c 0
 144.858243967 493 144.858243967 493 82.8188596578 424.574208483 c 0
 26.3319487662 361.441778663 26.3319487662 361.441778663 20.6531435885 276 c 1
 96.1495469911 276 l 1
 101.800795094 324.236649116 101.800795094 324.236649116 134.092355107 360.32721619 c 0
 174.062740621 405 174.062740621 405 231 405 c 0
 288.039101508 405 288.039101508 405 327.007011334 360.216054188 c 0
 359.208151569 324.160261323 359.208151569 324.160261323 364.850453009 276 c 1
 443.149546991 276 l 1
 448.791845931 324.160262876 448.791845931 324.160262876 480.992987992 360.216053424 c 0
 520 405 520 405 577 405 c 0
20 1135 m 1
 20 1046 l 1
 788 1046 l 1
 788 1135 l 1
 20 1135 l 1
EndSplineSet
EndChar

StartChar: kikue_c_end
Encoding: 69 -1 69
Width: 461
VWidth: 1100
GlyphClass: 2
Flags: W
AnchorPoint: "tone" 231 513 basechar 0
LayerCount: 2
Fore
SplineSet
231 -314 m 0
 250.892101719 -314 250.892101719 -314 265.446050859 -297.262958488 c 0
 280 -280.525916976 280 -280.525916976 280 -256.5 c 0
 280 -232.474083024 280 -232.474083024 265.446050859 -215.737041512 c 0
 250.892101719 -199 250.892101719 -199 231 -199 c 0
 211.423238961 -199 211.423238961 -199 196.800866627 -215.445610292 c 0
 182 -231.726563582 182 -231.726563582 182 -256.126240279 c 0
 182 -280.525916976 182 -280.525916976 196.553949141 -297.262958488 c 0
 211.107898281 -314 211.107898281 -314 231 -314 c 0
231 108 m 0
 174.130377413 108 174.130377413 108 134.181428369 152.573314982 c 0
 95.0000004303 195.284990253 95.0000004303 195.284990253 95 256 c 0
 95 316.635760482 95 316.635760482 134.092355107 360.32721619 c 0
 166.528523864 396.5794048 166.528523864 396.5794048 211 403.478554674 c 1
 211 492.077685581 l 1
 137.769588123 485.181629585 137.769588123 485.181629585 82.8188596578 424.574208483 c 0
 20 354.364894748 20 354.364894748 20 256 c 0
 20 157.711298493 20 157.711298493 82.8188596578 88.4257915172 c 0
 143.94590008 20 143.94590008 20 231 20 c 0
 318.053367094 20 318.053367094 20 379.081883988 88.3155039859 c 0
 409.125629608 121.451988126 409.125629608 121.451988126 424.731836446 160.673700042 c 1
 415.010911802 153.829659588 415.010911802 153.829659588 403.735186308 147.528518871 c 0
 332.156517001 108 332.156517001 108 231 108 c 0
20 1135 m 1
 20 1046 l 1
 442 1046 l 1
 442 1135 l 1
 20 1135 l 1
EndSplineSet
EndChar

StartChar: laoliq_c_end
Encoding: 70 -1 70
Width: 923
VWidth: 1100
GlyphClass: 2
Flags: W
AnchorPoint: "tone" 231 513 basechar 0
LayerCount: 2
Fore
SplineSet
528.000599326 -255.683475342 m 0
 528.85823002 -280.362880364 528.85823002 -280.362880364 543.306056506 -297.181440182 c 0
 557.753882993 -314 557.753882993 -314 577.322992356 -314 c 0
 596.545569991 -314 596.545569991 -314 611.724870347 -297.176782429 c 0
 626.904170703 -280.353564857 626.904170703 -280.353564857 626.9993537 -256.327811498 c 0
 626.143190291 -232.638755254 626.143190291 -232.638755254 611.517646005 -215.819377627 c 0
 596.892101719 -199 596.892101719 -199 577.5 -199 c 0
 558.107898281 -199 558.107898281 -199 544.096227849 -215.113420998 c 2
 543.466757367 -215.804265374 l 2
 528.090870992 -231.912336815 528.090870992 -231.912336815 528.000599326 -255.683475342 c 0
904 20 m 1
 904 256 l 2
 904 355.288701507 904 355.288701507 841.181140342 424.574208483 c 0
 780.05409992 493 780.05409992 493 693.456171943 493 c 0
 606.858243967 493 606.858243967 493 544.818859658 424.574208483 c 0
 488.331948766 361.441778663 488.331948766 361.441778663 482.653143588 276 c 1
 558.149546991 276 l 1
 563.800795094 324.236649116 563.800795094 324.236649116 596.092355107 360.32721619 c 0
 636.062740621 405 636.062740621 405 693 405 c 0
 750.528871105 405 750.528871105 405 790.104837966 360.103512843 c 0
 828 316.466659591 828 316.466659591 828 256 c 2
 828 108 l 1
 397.355253792 108 l 1
 413.417863951 137.534476745 l 2
 442 190.088726899 442 190.088726899 442 256 c 0
 442 355.288701507 442 355.288701507 379.181140342 424.574208483 c 0
 318.05409992 493 318.05409992 493 231.456171943 493 c 0
 144.858243967 493 144.858243967 493 82.8188596578 424.574208483 c 0
 26.3319487662 361.441778663 26.3319487662 361.441778663 20.6531435885 276 c 1
 96.1495469911 276 l 1
 101.800795094 324.236649116 101.800795094 324.236649116 134.092355107 360.32721619 c 0
 174.062740621 405 174.062740621 405 231 405 c 0
 288.039101508 405 288.039101508 405 327.007011334 360.216054188 c 0
 365.99999756 316.555394215 365.99999756 316.555394215 366 256 c 0
 366 145.672177832 366 145.672177832 330.225932525 66.7587936968 c 0
 317.737558309 38.659951709 317.737558309 38.659951709 302.825138866 20 c 1
 904 20 l 1
20 1135 m 1
 20 1046 l 1
 904 1046 l 1
 904 1135 l 1
 20 1135 l 1
EndSplineSet
EndChar

StartChar: mamei_c_end
Encoding: 71 -1 71
Width: 1385
VWidth: 1100
GlyphClass: 2
Flags: W
AnchorPoint: "tone" 231 513 basechar 0
LayerCount: 2
Fore
SplineSet
1366 -256 m 2
 1366 256 l 2
 1366 355.288701507 1366 355.288701507 1303.18114034 424.574208483 c 0
 1242.05409992 493 1242.05409992 493 1155 493 c 0
 1067.92184178 493 1067.92184178 493 1005.91316994 424.678173566 c 0
 950.258587406 361.483016627 950.258587406 361.483016627 944.645502026 276 c 1
 1020.14954699 276 l 1
 1025.80079509 324.236649116 1025.80079509 324.236649116 1058.09235511 360.32721619 c 0
 1098.06274062 405 1098.06274062 405 1155 405 c 0
 1212.5288711 405 1212.5288711 405 1252.10483797 360.103512843 c 0
 1290 316.466659591 1290 316.466659591 1290 256 c 2
 1290 108 l 1
 904 108 l 1
 904 256 l 2
 904 355.288701507 904 355.288701507 841.181140342 424.574208483 c 0
 780.05409992 493 780.05409992 493 693.456171943 493 c 0
 606.858243967 493 606.858243967 493 544.818859658 424.574208483 c 0
 488.331948766 361.441778663 488.331948766 361.441778663 482.653143588 276 c 1
 558.149546991 276 l 1
 563.800795094 324.236649116 563.800795094 324.236649116 596.092355107 360.32721619 c 0
 636.062740621 405 636.062740621 405 693 405 c 0
 750.528871105 405 750.528871105 405 790.104837966 360.103512843 c 0
 828 316.466659591 828 316.466659591 828 256 c 2
 828 108 l 1
 397.355253792 108 l 1
 413.417863951 137.534476745 l 2
 442 190.088726899 442 190.088726899 442 256 c 0
 442 355.288701507 442 355.288701507 379.181140342 424.574208483 c 0
 318.05409992 493 318.05409992 493 231.456171943 493 c 0
 144.858243967 493 144.858243967 493 82.8188596578 424.574208483 c 0
 26.3319487662 361.441778663 26.3319487662 361.441778663 20.6531435885 276 c 1
 96.1495469911 276 l 1
 101.800795094 324.236649116 101.800795094 324.236649116 134.092355107 360.32721619 c 0
 174.062740621 405 174.062740621 405 231 405 c 0
 288.039101508 405 288.039101508 405 327.007011334 360.216054188 c 0
 365.99999756 316.555394215 365.99999756 316.555394215 366 256 c 0
 366 145.672177832 366 145.672177832 330.225932525 66.7587936968 c 0
 317.737558309 38.659951709 317.737558309 38.659951709 302.825138866 20 c 1
 1290 20 l 1
 1290 -255.905490771 l 2
 1290.02856355 -259.008604666 1290.02856355 -259.008604666 1290.02857143 -262.088163265 c 0
 1290.02857143 -369.470679311 1290.02857143 -369.470679311 1255.22593253 -446.241206303 c 0
 1248.48204024 -461.117439275 1248.48204024 -461.117439275 1241.05934677 -473.477347953 c 1
 1274.53109066 -456.644339248 1274.53109066 -456.644339248 1303.08188399 -424.684496014 c 0
 1366 -354.364248707 1366 -354.364248707 1366 -256 c 2
20 1135 m 1
 20 1046 l 1
 1366 1046 l 1
 1366 1135 l 1
 20 1135 l 1
EndSplineSet
EndChar

StartChar: nanaq_c_end
Encoding: 72 -1 72
Width: 461
VWidth: 1100
GlyphClass: 2
Flags: W
AnchorPoint: "tone" 231 513 basechar 0
LayerCount: 2
Fore
SplineSet
231 405 m 0
 288.039101508 405 288.039101508 405 327.007011334 360.216054188 c 0
 365.99999756 316.555394215 365.99999756 316.555394215 366 256 c 0
 366 195.366303697 366 195.366303697 326.919042555 152.682941104 c 0
 287.970216176 108.000000689 287.970216176 108.000000689 231 108 c 0
 174.130377413 108 174.130377413 108 134.181428369 152.573314982 c 0
 95.0000004303 195.284990253 95.0000004303 195.284990253 95 256 c 0
 95 316.635760482 95 316.635760482 134.531370311 360.817880241 c 0
 174.062740621 405 174.062740621 405 231 405 c 0
379.081883988 88.3155039859 m 0
 442 157.710484881 442 157.710484881 442 256.499593194 c 0
 442 355.288701507 442 355.288701507 379.181140342 424.574208483 c 0
 318.05409992 493 318.05409992 493 231.456171943 493 c 0
 144.858243967 493 144.858243967 493 82.8188596578 424.574208483 c 0
 20 354.364894748 20 354.364894748 20 256 c 0
 20 157.711298493 20 157.711298493 82.8188596578 88.4257915172 c 0
 143.94590008 20 143.94590008 20 231 20 c 0
 318.053367094 20 318.053367094 20 379.081883988 88.3155039859 c 0
424.916052418 674.803545195 m 1
 355.349241985 625.713410091 355.349241985 625.713410091 251 621.40650531 c 1
 251 533.902222105 l 1
 324.951485391 540.721774213 324.951485391 540.721774213 379.081883988 601.315503986 c 0
 409.31046159 635.100384835 409.31046159 635.100384835 424.916052418 674.803545195 c 1
20 1135 m 1
 20 1046 l 1
 442 1046 l 1
 442 1135 l 1
 20 1135 l 1
EndSplineSet
EndChar

StartChar: pipoq_c_end
Encoding: 73 -1 73
Width: 461
VWidth: 1100
GlyphClass: 2
Flags: W
AnchorPoint: "tone" 231 513 basechar 0
LayerCount: 2
Fore
SplineSet
231 405 m 0
 288.039101508 405 288.039101508 405 327.007011334 360.216054188 c 0
 365.99999756 316.555394215 365.99999756 316.555394215 366 256 c 0
 366 195.366303697 366 195.366303697 326.919042555 152.682941104 c 0
 287.970216176 108.000000689 287.970216176 108.000000689 231 108 c 0
 174.130377413 108 174.130377413 108 134.181428369 152.573314982 c 0
 95.0000004303 195.284990253 95.0000004303 195.284990253 95 256 c 0
 95 316.635760482 95 316.635760482 134.531370311 360.817880241 c 0
 174.062740621 405 174.062740621 405 231 405 c 0
442 -256 m 2
 442 256 l 2
 442 355.288701507 442 355.288701507 379.181140342 424.574208483 c 0
 318.05409992 493 318.05409992 493 231.456171943 493 c 0
 144.858243967 493 144.858243967 493 82.8188596578 424.574208483 c 0
 20 354.364894748 20 354.364894748 20 256 c 0
 20 157.711298493 20 157.711298493 82.8188596578 88.4257915172 c 0
 143.94590008 20 143.94590008 20 231 20 c 0
 288.190872627 20 288.190872627 20 335.304513107 49.8990410738 c 2
 366 69.3788692943 l 1
 366 -256 l 2
 366 -367.327822168 366 -367.327822168 330.225932525 -446.241206303 c 0
 323.290426069 -461.540117604 323.290426069 -461.540117604 315.695938358 -474.155797134 c 1
 349.955871721 -457.288241161 349.955871721 -457.288241161 379.081883988 -424.684496014 c 0
 442 -354.364248707 442 -354.364248707 442 -256 c 2
20 1135 m 1
 20 1046 l 1
 442 1046 l 1
 442 1135 l 1
 20 1135 l 1
EndSplineSet
EndChar

StartChar: aqaq_c_end
Encoding: 74 -1 74
Width: 461
VWidth: 1100
GlyphClass: 2
Flags: W
AnchorPoint: "tone" 231 513 basechar 0
LayerCount: 2
Fore
SplineSet
366 69.3788692943 m 1
 366 -256 l 2
 366 -367.327822168 366 -367.327822168 330.225932525 -446.241206303 c 0
 323.290426069 -461.540117604 323.290426069 -461.540117604 315.695938358 -474.155797134 c 1
 349.955871721 -457.288241161 349.955871721 -457.288241161 379.081883988 -424.684496014 c 0
 442 -354.364248707 442 -354.364248707 442 -256 c 2
 442 236 l 1
 364.845742651 236 l 1
 359.18228943 187.920150345 359.18228943 187.920150345 326.919042556 152.682941105 c 0
 287.970216176 108.000000689 287.970216176 108.000000689 231 108 c 0
 174.130377413 108 174.130377413 108 134.181428369 152.573314982 c 0
 95.0000004303 195.284990253 95.0000004303 195.284990253 95 256 c 0
 95 316.635760482 95 316.635760482 134.092355107 360.32721619 c 0
 166.528523864 396.5794048 166.528523864 396.5794048 211 403.478554674 c 1
 211 492.077685581 l 1
 137.769588123 485.181629585 137.769588123 485.181629585 82.8188596578 424.574208483 c 0
 20 354.364894748 20 354.364894748 20 256 c 0
 20 157.711298493 20 157.711298493 82.8188596578 88.4257915172 c 0
 143.94590008 20 143.94590008 20 231 20 c 0
 288.190872627 20 288.190872627 20 335.304513107 49.8990410738 c 2
 366 69.3788692943 l 1
20 1135 m 1
 20 1046 l 1
 442 1046 l 1
 442 1135 l 1
 20 1135 l 1
EndSplineSet
EndChar

StartChar: rairua_c_end
Encoding: 75 -1 75
Width: 923
VWidth: 1100
Flags: W
AnchorPoint: "tone" 231 513 basechar 0
LayerCount: 2
Fore
SplineSet
904 -256 m 2
 904 256 l 2
 904 355.288701507 904 355.288701507 841.181140342 424.574208483 c 0
 780.05409992 493 780.05409992 493 693.456171943 493 c 0
 606.858243967 493 606.858243967 493 544.818859658 424.574208483 c 0
 488.331948766 361.441778663 488.331948766 361.441778663 482.653143588 276 c 1
 558.149546991 276 l 1
 563.800795094 324.236649116 563.800795094 324.236649116 596.092355107 360.32721619 c 0
 636.062740621 405 636.062740621 405 693 405 c 0
 750.528871105 405 750.528871105 405 790.104837966 360.103512843 c 0
 828 316.466659591 828 316.466659591 828 256 c 2
 828 108 l 1
 397.355253792 108 l 1
 413.417863951 137.534476745 l 2
 442 190.088726899 442 190.088726899 442 256 c 0
 442 355.288701507 442 355.288701507 379.181140342 424.574208483 c 0
 318.05409992 493 318.05409992 493 231.456171943 493 c 0
 144.858243967 493 144.858243967 493 82.8188596578 424.574208483 c 0
 26.3319487662 361.441778663 26.3319487662 361.441778663 20.6531435885 276 c 1
 96.1495469911 276 l 1
 101.800795094 324.236649116 101.800795094 324.236649116 134.092355107 360.32721619 c 0
 174.062740621 405 174.062740621 405 231 405 c 0
 288.039101508 405 288.039101508 405 327.007011334 360.216054188 c 0
 365.99999756 316.555394215 365.99999756 316.555394215 366 256 c 0
 366 145.672177832 366 145.672177832 330.225932525 66.7587936968 c 0
 317.737558309 38.659951709 317.737558309 38.659951709 302.825138866 20 c 1
 828 20 l 1
 828 -255.905490771 l 2
 828.028563553 -259.008604666 828.028563553 -259.008604666 828.028571429 -262.088163265 c 0
 828.028571429 -369.470679311 828.028571429 -369.470679311 793.225932525 -446.241206303 c 0
 786.482040245 -461.117439275 786.482040245 -461.117439275 779.059346775 -473.477347953 c 1
 812.531090661 -456.644339248 812.531090661 -456.644339248 841.081883988 -424.684496014 c 0
 904 -354.364248707 904 -354.364248707 904 -256 c 2
20 1135 m 1
 20 1046 l 1
 904 1046 l 1
 904 1135 l 1
 20 1135 l 1
EndSplineSet
EndChar

StartChar: saqseoq_c_end
Encoding: 76 -1 76
Width: 461
VWidth: 1100
GlyphClass: 2
Flags: W
AnchorPoint: "tone" 231 513 basechar 0
AnchorPoint: "vv" 462 -161 basechar 0
LayerCount: 2
Fore
SplineSet
231 405 m 0
 288.039101508 405 288.039101508 405 327.007011334 360.216054188 c 0
 365.99999756 316.555394215 365.99999756 316.555394215 366 256 c 0
 366 195.366303697 366 195.366303697 326.919042555 152.682941104 c 0
 287.970216176 108.000000689 287.970216176 108.000000689 231 108 c 0
 174.130377413 108 174.130377413 108 134.181428369 152.573314982 c 0
 95.0000004303 195.284990253 95.0000004303 195.284990253 95 256 c 0
 95 316.635760482 95 316.635760482 134.531370311 360.817880241 c 0
 174.062740621 405 174.062740621 405 231 405 c 0
379.081883988 88.3155039859 m 0
 442 157.710484881 442 157.710484881 442 256.499593194 c 0
 442 355.288701507 442 355.288701507 379.181140342 424.574208483 c 0
 318.05409992 493 318.05409992 493 231.456171943 493 c 0
 144.858243967 493 144.858243967 493 82.8188596578 424.574208483 c 0
 20 354.364894748 20 354.364894748 20 256 c 0
 20 157.711298493 20 157.711298493 82.8188596578 88.4257915172 c 0
 143.94590008 20 143.94590008 20 231 20 c 0
 318.053367094 20 318.053367094 20 379.081883988 88.3155039859 c 0
20 1135 m 1
 20 1046 l 1
 442 1046 l 1
 442 1135 l 1
 20 1135 l 1
EndSplineSet
EndChar

StartChar: titieq_c_end
Encoding: 77 -1 77
Width: 808
VWidth: 1100
GlyphClass: 2
Flags: W
CounterMasks: 1 0e
AnchorPoint: "tone" 231 513 basechar 0
LayerCount: 2
Fore
SplineSet
231 405 m 0
 288.039101508 405 288.039101508 405 327.007011334 360.216054188 c 0
 365.99999756 316.555394215 365.99999756 316.555394215 366 256 c 0
 366 195.366303697 366 195.366303697 326.919042555 152.682941104 c 0
 287.970216176 108.000000689 287.970216176 108.000000689 231 108 c 0
 174.130377413 108 174.130377413 108 134.181428369 152.573314982 c 0
 95.0000004303 195.284990253 95.0000004303 195.284990253 95 256 c 0
 95 316.635760482 95 316.635760482 134.531370311 360.817880241 c 0
 174.062740621 405 174.062740621 405 231 405 c 0
442 256 m 2
 442 513 l 2
 442 573.635760482 442 573.635760482 480.983206423 617.274520705 c 0
 519.966412847 660.913280929 519.966412847 660.913280929 576.787870378 660.999838435 c 0
 578.122225294 661.025608707 578.122225294 661.025608707 579.452333991 661.025641026 c 0
 634.809054251 661.025641026 634.809054251 661.025641026 673.907644893 617.32721619 c 0
 713 573.635760482 713 573.635760482 713 513 c 2
 713 256 l 2
 713 145.672177832 713 145.672177832 677.225932525 66.7587936968 c 0
 670.427491389 51.7622323665 670.427491389 51.7622323665 662.939309465 39.3230102115 c 1
 696.964846181 56.2019376442 696.964846181 56.2019376442 726.181140342 88.4257915172 c 0
 788 157.626007552 788 157.626007552 788 256 c 2
 788 513.192190601 l 2
 788.013591034 514.632840174 788.013591034 514.632840174 788.014492754 516.065952531 c 0
 788.014492754 612.375658029 788.014492754 612.375658029 726.181140342 680.574208483 c 0
 664.100410392 749.958553722 664.100410392 749.958553722 577.108045725 749.999978923 c 0
 490.905761925 749.052402662 490.905761925 749.052402662 428.452880963 680.170552085 c 0
 366 611.288701507 366 611.288701507 366 513 c 2
 366 480 l 1
 366 443.23824492 l 1
 335.155709283 463.196315384 l 2
 289.095469422 493 289.095469422 493 231 493 c 0
 144.858243967 493 144.858243967 493 82.8188596578 424.574208483 c 0
 20 354.364894748 20 354.364894748 20 256 c 0
 20 157.711298493 20 157.711298493 82.8188596578 88.4257915172 c 0
 143.94590008 20 143.94590008 20 231 20 c 0
 318.053367094 20 318.053367094 20 379.081883988 88.3155039859 c 0
 442 157.710484881 442 157.710484881 442 256 c 2
20 1135 m 1
 20 1046 l 1
 788 1046 l 1
 788 1135 l 1
 20 1135 l 1
EndSplineSet
EndChar

StartChar: veva_c_end
Encoding: 78 -1 78
Width: 461
VWidth: 1100
GlyphClass: 2
Flags: W
AnchorPoint: "tone" 693 513 basechar 0
LayerCount: 2
Fore
SplineSet
379.081883988 88.3155039859 m 0
 442 157.710484881 442 157.710484881 442 256.499593194 c 0
 442 355.288701507 442 355.288701507 379.181140342 424.574208483 c 0
 318.05409992 493 318.05409992 493 231 493 c 2
 95 493 l 1
 95 513 l 2
 95 623.327822168 95 623.327822168 130.774067475 702.241206303 c 0
 137.46299231 717.192920641 137.46299231 717.192920641 144.810431355 729.619201778 c 1
 111.406325169 712.574282318 111.406325169 712.574282318 82.9181160115 680.684496014 c 0
 20 611.289515119 20 611.289515119 20 513 c 2
 20 405 l 1
 231 405 l 2
 288.039101508 405 288.039101508 405 327.007011334 360.216054188 c 0
 365.99999756 316.555394215 365.99999756 316.555394215 366 256 c 0
 366 145.672177832 366 145.672177832 330.225932525 66.7587936968 c 0
 323.290426069 51.4598823959 323.290426069 51.4598823959 315.695938358 38.8442028657 c 1
 349.955871721 55.7117588392 349.955871721 55.7117588392 379.081883988 88.3155039859 c 0
20 1135 m 1
 20 1046 l 1
 442 1046 l 1
 442 1135 l 1
 20 1135 l 1
EndSplineSet
EndChar

StartChar: nhanhoq_c_end
Encoding: 79 -1 79
Width: 461
VWidth: 1100
GlyphClass: 2
Flags: W
AnchorPoint: "tone" 231 513 basechar 0
LayerCount: 2
Fore
SplineSet
231 3 m 1025
202 76 m 0
 181.024088936 76 181.024088936 76 167.012044468 91.6654140973 c 0
 153 107.330828195 153 107.330828195 153 128 c 0
 153 148.634462833 153 148.634462833 167.087257042 163.348960315 c 0
 181 180 181 180 201.315721688 180 c 0
 221.631443376 180 221.631443376 180 236.51884425 163.755833954 c 0
 251 149 251 149 251 128.165700889 c 0
 251 107.331401779 251 107.331401779 236.951309588 91.7217457658 c 0
 222.976424463 76 222.976424463 76 202 76 c 0
379.181140342 88.4257915172 m 0
 442 157.711298493 442 157.711298493 442 256.5 c 0
 442 355.288701507 442 355.288701507 379.181140342 424.574208483 c 0
 318.05409992 493 318.05409992 493 231.456171943 493 c 0
 144.858243967 493 144.858243967 493 82.8188596578 424.574208483 c 0
 26.3319487662 361.441778663 26.3319487662 361.441778663 20.6531435885 276 c 1
 96.1495469911 276 l 1
 101.800795094 324.236649116 101.800795094 324.236649116 134.092355107 360.32721619 c 0
 174.062740621 405 174.062740621 405 231 405 c 0
 288.039101508 405 288.039101508 405 327.007011334 360.216054188 c 0
 365.99999756 316.555394215 365.99999756 316.555394215 365.99999878 256.459816866 c 0
 366 196.364239518 366 196.364239518 326.907644893 152.67278381 c 2
 302.462309418 125.351526514 l 1
 292.717516489 160.676400884 l 2
 285.921989501 185.310186215 285.921989501 185.310186215 268.942003493 205.83242671 c 0
 241.010530868 235.999997347 241.010530868 235.999997347 202 236 c 0
 162.901004832 236 162.901004832 236 134.919777017 205.68291322 c 0
 107.000002753 173.390941153 107.000002753 173.390941153 107 128 c 2
 107 127.616054162 l 2
 106.975013061 126.291746392 106.975013061 126.291746392 106.971428571 124.983673469 c 0
 106.971428571 81.6153578759 106.971428571 81.6153578759 134.818571822 50.4268719638 c 0
 162.836221705 20.0000004476 162.836221705 20.0000004476 202 20 c 0
 214.865171785 20 214.865171785 20 226.795726145 22.5565473629 c 2
 251 27.7431774747 l 1
 251 20.9223144191 l 1
 324.230411877 27.8183704155 324.230411877 27.8183704155 379.181140342 88.4257915172 c 0
20 1135 m 1
 20 1046 l 1
 442 1046 l 1
 442 1135 l 1
 20 1135 l 1
EndSplineSet
EndChar

StartChar: shoshia_c_end
Encoding: 80 -1 80
Width: 461
VWidth: 1100
GlyphClass: 2
Flags: W
AnchorPoint: "tone" 231 513 basechar 0
LayerCount: 2
Fore
SplineSet
425.302950884 547.047886998 m 1
 348.765114692 493 348.765114692 493 231 493 c 0
 144.858243967 493 144.858243967 493 82.8188596578 424.574208483 c 0
 20 354.364894748 20 354.364894748 20 256 c 0
 20 157.711298493 20 157.711298493 82.8188596578 88.4257915172 c 0
 143.94590008 20 143.94590008 20 231 20 c 0
 288.190872627 20 288.190872627 20 335.304513107 49.8990410738 c 2
 366 69.3788692943 l 1
 366 -256 l 2
 366 -367.327822168 366 -367.327822168 330.225932525 -446.241206303 c 0
 323.290426069 -461.540117604 323.290426069 -461.540117604 315.695938358 -474.155797134 c 1
 349.955871721 -457.288241161 349.955871721 -457.288241161 379.081883988 -424.684496014 c 0
 442 -354.364248707 442 -354.364248707 442 -256 c 2
 442 236 l 1
 364.845742651 236 l 1
 359.18228943 187.920150345 359.18228943 187.920150345 326.919042556 152.682941105 c 0
 287.970216176 108.000000689 287.970216176 108.000000689 231 108 c 0
 174.130377413 108 174.130377413 108 134.181428369 152.573314982 c 0
 95.0000004303 195.284990253 95.0000004303 195.284990253 95 256 c 0
 95 316.635760482 95 316.635760482 134.531370311 360.817880241 c 0
 174.062740621 405 174.062740621 405 231 405 c 0
 317.141756033 405 317.141756033 405 379.181140342 473.425791517 c 0
 409.714264137 507.102030997 409.714264137 507.102030997 425.302950884 547.047886998 c 1
20 1135 m 1
 20 1046 l 1
 442 1046 l 1
 442 1135 l 1
 20 1135 l 1
EndSplineSet
EndChar

StartChar: chichao_c_end
Encoding: 81 -1 81
Width: 461
VWidth: 1100
GlyphClass: 2
Flags: W
AnchorPoint: "tone" 231 513 basechar 0
LayerCount: 2
Fore
SplineSet
425.302950884 547.047886998 m 1
 348.765114692 493 348.765114692 493 231 493 c 0
 144.858243967 493 144.858243967 493 82.8188596578 424.574208483 c 0
 20 354.364894748 20 354.364894748 20 256 c 0
 20 157.711298493 20 157.711298493 82.8188596578 88.4257915172 c 0
 143.94590008 20 143.94590008 20 231 20 c 0
 318.053367094 20 318.053367094 20 379.081883988 88.3155039859 c 0
 409.125629608 121.451988126 409.125629608 121.451988126 424.731836446 160.673700042 c 1
 415.010911802 153.829659588 415.010911802 153.829659588 403.735186308 147.528518871 c 0
 332.156517001 108 332.156517001 108 231 108 c 0
 174.130377413 108 174.130377413 108 134.181428369 152.573314982 c 0
 95.0000004303 195.284990253 95.0000004303 195.284990253 95 256 c 0
 95 316.635760482 95 316.635760482 134.531370311 360.817880241 c 0
 174.062740621 405 174.062740621 405 231 405 c 0
 317.141756033 405 317.141756033 405 379.181140342 473.425791517 c 0
 409.714264137 507.102030997 409.714264137 507.102030997 425.302950884 547.047886998 c 1
20 1135 m 1
 20 1046 l 1
 442 1046 l 1
 442 1135 l 1
 20 1135 l 1
EndSplineSet
EndChar

StartChar: zozeo_c_end
Encoding: 82 -1 82
Width: 461
VWidth: 1100
GlyphClass: 2
Flags: W
AnchorPoint: "tone" 231 513 basechar 0
LayerCount: 2
Fore
SplineSet
20 1135 m 1
 20 1046 l 1
 442 1046 l 1
 442 1135 l 1
 20 1135 l 1
49 -128 m 2
 49 -256.190396392 l 2
 48.9863921241 -257.646439119 48.9863921241 -257.646439119 48.9855072464 -259.094727998 c 0
 48.9855072464 -356.375658029 48.9855072464 -356.375658029 110.818859658 -424.574208483 c 0
 139.542996223 -456.123669956 139.542996223 -456.123669956 173.72585388 -473.084596813 c 1
 166.410653737 -460.864099064 166.410653737 -460.864099064 159.733549568 -446.151236018 c 0
 124 -366.276242866 124 -366.276242866 124 -256 c 2
 124 -128 l 2
 124 -68.3642395179 124 -68.3642395179 163.531370311 -24.1821197589 c 0
 203.062740621 20 203.062740621 20 260 20 c 2
 366 20 l 1
 366 -256 l 2
 366 -367.326503515 366 -367.326503515 330.286211304 -446.106919755 c 0
 323.539808524 -461.286326012 323.539808524 -461.286326012 316.060385628 -473.812875215 c 1
 350.20266291 -456.877661613 350.20266291 -456.877661613 379.109666865 -424.653460434 c 0
 442 -354.364264577 442 -354.364264577 442 -256 c 2
 442 20 l 1
 693 20 l 2
 779.141756033 20 779.141756033 20 841.181140342 88.4257915172 c 0
 871.202625464 121.537723637 871.202625464 121.537723637 886.773110854 160.702766781 c 1
 877.034887552 153.843057802 877.034887552 153.843057802 865.735186308 147.528518871 c 0
 794.156517001 108 794.156517001 108 693 108 c 2
 442 108 l 1
 442 256 l 2
 442 355.288701507 442 355.288701507 379.181140342 424.574208483 c 0
 318.05409992 493 318.05409992 493 231.456171943 493 c 0
 144.858243967 493 144.858243967 493 82.8188596578 424.574208483 c 0
 26.3319487662 361.441778663 26.3319487662 361.441778663 20.6531435885 276 c 1
 96.1495469911 276 l 1
 101.800795094 324.236649116 101.800795094 324.236649116 134.092355107 360.32721619 c 0
 174.062740621 405 174.062740621 405 231 405 c 0
 288.039101508 405 288.039101508 405 327.007011334 360.216054188 c 0
 365.99999756 316.555394215 365.99999756 316.555394215 366 256 c 2
 366 108 l 1
 249.290107471 108 l 1
 233.342585844 106.136003966 l 2
 163.771105927 98.0042725468 163.771105927 98.0042725468 110.821953896 39.5776220294 c 0
 49 -29.6260577044 49 -29.6260577044 49 -128 c 2
173.72585388 -473.084596813 m 1
 205.607073251 -488.90349163 205.607073251 -488.90349163 242.236656792 -492.032294043 c 0
 245.285257345 -491.961042229 245.285257345 -491.961042229 248.638484589 -492.045440657 c 0
 284.575458752 -489.429992888 284.575458752 -489.429992888 316.060385628 -473.812875215 c 1
 288.129165247 -520.592126943 288.129165247 -520.592126943 249.975387975 -530.375146756 c 2
 244.934595779 -531.667657576 l 1
 239.903239854 -530.343616543 l 2
 202.036066171 -520.378570837 202.036066171 -520.378570837 173.72585388 -473.084596813 c 1
EndSplineSet
EndChar

StartChar: space_c_end
Encoding: 83 -1 83
Width: 461
VWidth: 1100
GlyphClass: 1
Flags: W
LayerCount: 2
Fore
SplineSet
20 1135 m 1
 20 1046 l 1
 442 1046 l 1
 442 1135 l 1
 20 1135 l 1
EndSplineSet
EndChar

StartChar: prefix_c_end
Encoding: 84 -1 84
Width: 288
VWidth: 1100
GlyphClass: 2
Flags: W
LayerCount: 2
Fore
SplineSet
178.199133373 87.4456102925 m 0
 193 103.726563582 193 103.726563582 193 128 c 0
 193 152.418407903 193 152.418407903 178.049722185 169.718216582 c 0
 164.067957919 184.999999412 164.067957919 184.999999412 144 185 c 2
 143.299709564 185.01205623 l 2
 142.435404156 185.041859864 142.435404156 185.041859864 141.598958333 185.041666667 c 0
 123.274564948 185.041666667 123.274564948 185.041666667 109.137282474 168.783791822 c 0
 95 152.525916976 95 152.525916976 95 128.5 c 0
 95 104.474083024 95 104.474083024 109.553949141 87.7370415118 c 0
 124.107898281 71 124.107898281 71 143.84232966 71 c 0
 163.576761039 71 163.576761039 71 178.199133373 87.4456102925 c 0
178.049722027 343.28178324 m 0
 193 361 193 361 193 384.762958488 c 0
 193 408.525916976 193 408.525916976 178.446050859 425.262958488 c 0
 163.892101719 442 163.892101719 442 144 442 c 0
 124.423238961 442 124.423238961 442 109.800866627 425.554389708 c 0
 95 409.273436418 95 409.273436418 95 385 c 0
 95 360.581592096 95 360.581592096 109.950277815 343.281783418 c 0
 123.932042081 328.000000588 123.932042081 328.000000588 144 328 c 0
 164.067958472 328 164.067958472 328 178.049722027 343.28178324 c 0
20 1135 m 1
 20 1046 l 1
 268 1046 l 1
 268 1135 l 1
 20 1135 l 1
EndSplineSet
EndChar

StartChar: oaomo_c_end
Encoding: 85 -1 85
Width: 288
VWidth: 1100
GlyphClass: 2
Flags: W
LayerCount: 2
Fore
SplineSet
178.199133373 215.445610292 m 0
 193 231.726563582 193 231.726563582 193 256.126240279 c 0
 193 280.525916976 193 280.525916976 178.446050859 297.262958488 c 0
 163.892101719 314 163.892101719 314 144 314 c 0
 124.107898281 314 124.107898281 314 109.553949141 297.262958488 c 0
 95 280.525916976 95 280.525916976 95 256.5 c 0
 95 232.474083024 95 232.474083024 109.553949141 215.737041512 c 0
 124.107898281 199 124.107898281 199 143.84232966 199 c 0
 163.576761039 199 163.576761039 199 178.199133373 215.445610292 c 0
20 1135 m 1
 20 1046 l 1
 268 1046 l 1
 268 1135 l 1
 20 1135 l 1
EndSplineSet
EndChar

StartChar: quote_c_end
Encoding: 86 -1 86
Width: 461
VWidth: 1100
GlyphClass: 2
Flags: W
LayerCount: 2
Fore
SplineSet
141.985983931 128 m 1
 230.935709623 29.8485785477 l 1
 319.118627334 128 l 1
 230.935709623 226.151421452 l 1
 141.985983931 128 l 1
141.938754936 384.947885246 m 1
 230.935484109 285.977384701 l 1
 319.165223767 384.948136144 l 1
 230.935709623 483.151421452 l 1
 141.938754936 384.947885246 l 1
20 1135 m 1
 20 1046 l 1
 442 1046 l 1
 442 1135 l 1
 20 1135 l 1
EndSplineSet
EndChar

StartChar: mamei_coda
Encoding: 87 988849 87
Width: 924
VWidth: 1100
GlyphClass: 2
Flags: W
AnchorPoint: "tone" 231 513 basechar 0
LayerCount: 2
Fore
SplineSet
693 20 m 2
 779.141756033 20 779.141756033 20 841.570878017 88.8556492464 c 0
 904 157.711298493 904 157.711298493 904 256.5 c 0
 904 355.288701507 904 355.288701507 841.181140342 424.574208483 c 0
 780.05409992 493 780.05409992 493 693.456171943 493 c 0
 606.858243967 493 606.858243967 493 544.818859658 424.574208483 c 0
 488.331948766 361.441778663 488.331948766 361.441778663 482.653143588 276 c 1
 558.149546991 276 l 1
 563.800795094 324.236649116 563.800795094 324.236649116 596.092355107 360.32721619 c 0
 636.062740621 405 636.062740621 405 693 405 c 0
 750.528871105 405 750.528871105 405 790.104837966 360.103512843 c 0
 827.937390267 316.538755647 827.937390267 316.538755647 827.999900575 256.192027875 c 0
 828.028540445 254.584311661 828.028540445 254.584311661 828.028571429 252.984489796 c 0
 828.028571429 194.227406375 828.028571429 194.227406375 789.818571684 152.573315855 c 0
 749.869623136 108.000000168 749.869623136 108.000000168 693 108 c 2
 397.355253792 108 l 1
 413.417863951 137.534476745 l 2
 442 190.088726899 442 190.088726899 442 256 c 0
 442 355.288701507 442 355.288701507 379.181140342 424.574208483 c 0
 318.05409992 493 318.05409992 493 231.456171943 493 c 0
 144.858243967 493 144.858243967 493 82.8188596578 424.574208483 c 0
 26.3319487662 361.441778663 26.3319487662 361.441778663 20.6531435885 276 c 1
 96.8299989127 276 l 1
 101.782699521 324.216424652 101.782699521 324.216424652 134.092355107 360.32721619 c 0
 174.062740621 405 174.062740621 405 231 405 c 0
 287.964128529 405 287.964128529 405 326.91127054 360.325980367 c 0
 366.999996293 316.644451125 366.999996293 316.644451125 367 256 c 0
 367 143.308073159 367 143.308073159 331.03121334 66.3421339659 c 0
 317.595935078 38.4380944993 317.595935078 38.4380944993 302.826714867 20 c 1
 693 20 l 2
EndSplineSet
Substitution2: "WithCartouche" mamei_coda_c
EndChar

StartChar: hiatus
Encoding: 90 988877 88
Width: 0
VWidth: 851
GlyphClass: 4
Flags: W
AnchorPoint: "vv" 462 -419 mark 0
LayerCount: 2
Fore
SplineSet
444 -429 m 0
 367.532833367 -429 367.532833367 -429 308.456051927 -484.598268393 c 1
 363.99280841 -546.230522538 l 1
 399.034278752 -517 399.034278752 -517 444 -517 c 0
 544.142499684 -517 544.142499684 -517 616.63707419 -557.473716576 c 0
 628.216420513 -563.78064205 628.216420513 -563.78064205 638.164101665 -570.692961606 c 1
 622.579413885 -530.953298848 622.579413885 -530.953298848 592.181140342 -497.425791517 c 0
 531.05409992 -429 531.05409992 -429 444 -429 c 0
EndSplineSet
Substitution2: "HiatusToHiatusDiphthong" hiatus_diphthong
EndChar

StartChar: mamei_coda_c
Encoding: 88 -1 89
Width: 924
VWidth: 1100
GlyphClass: 2
Flags: W
AnchorPoint: "tone" 231 513 basechar 0
LayerCount: 2
Fore
SplineSet
20 1135 m 1
 20 1046 l 1
 1102 1046 l 1
 1102 1135 l 1
 20 1135 l 1
693 20 m 2
 779.141756033 20 779.141756033 20 841.570878017 88.8556492464 c 0
 904 157.711298493 904 157.711298493 904 256.5 c 0
 904 355.288701507 904 355.288701507 841.181140342 424.574208483 c 0
 780.05409992 493 780.05409992 493 693.456171943 493 c 0
 606.858243967 493 606.858243967 493 544.818859658 424.574208483 c 0
 488.331948766 361.441778663 488.331948766 361.441778663 482.653143588 276 c 1
 558.149546991 276 l 1
 563.800795094 324.236649116 563.800795094 324.236649116 596.092355107 360.32721619 c 0
 636.062740621 405 636.062740621 405 693 405 c 0
 750.528871105 405 750.528871105 405 790.104837966 360.103512843 c 0
 827.937390267 316.538755647 827.937390267 316.538755647 827.999900575 256.192027875 c 0
 828.028540445 254.584311661 828.028540445 254.584311661 828.028571429 252.984489796 c 0
 828.028571429 194.227406375 828.028571429 194.227406375 789.818571684 152.573315855 c 0
 749.869623136 108.000000168 749.869623136 108.000000168 693 108 c 2
 397.355253792 108 l 1
 413.417863951 137.534476745 l 2
 442 190.088726899 442 190.088726899 442 256 c 0
 442 355.288701507 442 355.288701507 379.181140342 424.574208483 c 0
 318.05409992 493 318.05409992 493 231.456171943 493 c 0
 144.858243967 493 144.858243967 493 82.8188596578 424.574208483 c 0
 26.3319487662 361.441778663 26.3319487662 361.441778663 20.6531435885 276 c 1
 96.8299989127 276 l 1
 101.782699521 324.216424652 101.782699521 324.216424652 134.092355107 360.32721619 c 0
 174.062740621 405 174.062740621 405 231 405 c 0
 287.964128529 405 287.964128529 405 326.91127054 360.325980367 c 0
 366.999996293 316.644451125 366.999996293 316.644451125 367 256 c 0
 367 143.308073159 367 143.308073159 331.03121334 66.3421339659 c 0
 317.595935078 38.4380944993 317.595935078 38.4380944993 302.826714867 20 c 1
 693 20 l 2
EndSplineSet
Substitution2: "TrimCartouche" mamei_coda_c_end
EndChar

StartChar: mamei_coda_c_end
Encoding: 89 -1 90
Width: 924
VWidth: 1100
GlyphClass: 2
Flags: W
AnchorPoint: "tone" 231 513 basechar 0
LayerCount: 2
Fore
SplineSet
20 1135 m 1
 20 1046 l 1
 904 1046 l 1
 904 1135 l 1
 20 1135 l 1
693 20 m 2
 779.141756033 20 779.141756033 20 841.570878017 88.8556492464 c 0
 904 157.711298493 904 157.711298493 904 256.5 c 0
 904 355.288701507 904 355.288701507 841.181140342 424.574208483 c 0
 780.05409992 493 780.05409992 493 693.456171943 493 c 0
 606.858243967 493 606.858243967 493 544.818859658 424.574208483 c 0
 488.331948766 361.441778663 488.331948766 361.441778663 482.653143588 276 c 1
 558.149546991 276 l 1
 563.800795094 324.236649116 563.800795094 324.236649116 596.092355107 360.32721619 c 0
 636.062740621 405 636.062740621 405 693 405 c 0
 750.528871105 405 750.528871105 405 790.104837966 360.103512843 c 0
 827.937390267 316.538755647 827.937390267 316.538755647 827.999900575 256.192027875 c 0
 828.028540445 254.584311661 828.028540445 254.584311661 828.028571429 252.984489796 c 0
 828.028571429 194.227406375 828.028571429 194.227406375 789.818571684 152.573315855 c 0
 749.869623136 108.000000168 749.869623136 108.000000168 693 108 c 2
 397.355253792 108 l 1
 413.417863951 137.534476745 l 2
 442 190.088726899 442 190.088726899 442 256 c 0
 442 355.288701507 442 355.288701507 379.181140342 424.574208483 c 0
 318.05409992 493 318.05409992 493 231.456171943 493 c 0
 144.858243967 493 144.858243967 493 82.8188596578 424.574208483 c 0
 26.3319487662 361.441778663 26.3319487662 361.441778663 20.6531435885 276 c 1
 96.8299989127 276 l 1
 101.782699521 324.216424652 101.782699521 324.216424652 134.092355107 360.32721619 c 0
 174.062740621 405 174.062740621 405 231 405 c 0
 287.964128529 405 287.964128529 405 326.91127054 360.325980367 c 0
 366.999996293 316.644451125 366.999996293 316.644451125 367 256 c 0
 367 143.308073159 367 143.308073159 331.03121334 66.3421339659 c 0
 317.595935078 38.4380944993 317.595935078 38.4380944993 302.826714867 20 c 1
 693 20 l 2
EndSplineSet
EndChar

StartChar: hiatus_diphthong
Encoding: 91 -1 92
Width: 0
VWidth: 1100
GlyphClass: 4
Flags: W
AnchorPoint: "vv" 462 -161 mark 0
LayerCount: 2
Fore
SplineSet
313.330368836 -265.605132279 m 1
 350.317804444 -236 350.317804444 -236 393 -236 c 0
 493.210468328 -236 493.210468328 -236 565.735186308 -276.528518871 c 0
 577.120501836 -282.890901078 577.120501836 -282.890901078 586.920378619 -289.806597966 c 1
 571.318565439 -250.109451502 571.318565439 -250.109451502 541.092355107 -216.32721619 c 0
 480.053375311 -148 480.053375311 -148 393 -148 c 0
 316.532833367 -148 316.532833367 -148 257.456051927 -203.598268393 c 1
 313.330368836 -265.605132279 l 1
661.042705515 -289.832655263 m 1
 737.291388181 -236 737.291388181 -236 855 -236 c 2
 991 -236 l 1
 991 -256 l 2
 991 -367.327822168 991 -367.327822168 955.225932525 -446.241206303 c 0
 948.482040245 -461.117439275 948.482040245 -461.117439275 941.059346775 -473.477347953 c 1
 974.531090661 -456.644339248 974.531090661 -456.644339248 1003.08188399 -424.684496014 c 0
 1066 -354.364248707 1066 -354.364248707 1066 -256 c 2
 1066 -148 l 1
 855 -148 l 2
 768.858243967 -148 768.858243967 -148 706.818859658 -216.425791517 c 0
 676.612563964 -250.185769058 676.612563964 -250.185769058 661.042705515 -289.832655263 c 1
EndSplineSet
EndChar

